<mxfile host="Electron" agent="Mozilla/5.0 (Windows NT 10.0; Win64; x64) AppleWebKit/537.36 (KHTML, like Gecko) draw.io/24.7.5 Chrome/126.0.6478.183 Electron/31.3.0 Safari/537.36" version="24.7.5" pages="3">
  <diagram name="Диаграмма деятельности" id="kkLq06tvZemLLYdEWIEO">
    <mxGraphModel dx="1687" dy="984" grid="1" gridSize="10" guides="1" tooltips="1" connect="1" arrows="1" fold="1" page="0" pageScale="1" pageWidth="827" pageHeight="1169" math="0" shadow="0">
      <root>
        <mxCell id="0" />
        <mxCell id="1" parent="0" />
        <mxCell id="10YVXtvrBUSu_6T0aO4W-1" value="Пользователь" style="swimlane;" parent="1" vertex="1">
          <mxGeometry x="40" y="430" width="253" height="400" as="geometry" />
        </mxCell>
        <mxCell id="10YVXtvrBUSu_6T0aO4W-2" value="Ввод необходимых полей" style="rounded=1;whiteSpace=wrap;html=1;" parent="10YVXtvrBUSu_6T0aO4W-1" vertex="1">
          <mxGeometry x="84" y="79" width="120" height="40" as="geometry" />
        </mxCell>
        <mxCell id="10YVXtvrBUSu_6T0aO4W-4" value="Система" style="swimlane;" parent="1" vertex="1">
          <mxGeometry x="294" y="430" width="256" height="400" as="geometry" />
        </mxCell>
        <mxCell id="10YVXtvrBUSu_6T0aO4W-5" value="" style="ellipse;html=1;shape=startState;fillColor=#000000;strokeColor=#ff0000;" parent="10YVXtvrBUSu_6T0aO4W-4" vertex="1">
          <mxGeometry x="110" y="24" width="45" height="45" as="geometry" />
        </mxCell>
        <mxCell id="10YVXtvrBUSu_6T0aO4W-6" value="Вывод формы авторизации" style="rounded=1;whiteSpace=wrap;html=1;" parent="10YVXtvrBUSu_6T0aO4W-4" vertex="1">
          <mxGeometry x="70" y="79" width="125" height="40" as="geometry" />
        </mxCell>
        <mxCell id="10YVXtvrBUSu_6T0aO4W-7" value="" style="edgeStyle=orthogonalEdgeStyle;html=1;verticalAlign=bottom;endArrow=open;endSize=8;strokeColor=#ff0000;rounded=0;" parent="10YVXtvrBUSu_6T0aO4W-4" source="10YVXtvrBUSu_6T0aO4W-5" target="10YVXtvrBUSu_6T0aO4W-6" edge="1">
          <mxGeometry relative="1" as="geometry">
            <mxPoint x="-249" y="269" as="targetPoint" />
          </mxGeometry>
        </mxCell>
        <mxCell id="10YVXtvrBUSu_6T0aO4W-8" value="Переход на главную страницу" style="rounded=1;whiteSpace=wrap;html=1;" parent="10YVXtvrBUSu_6T0aO4W-4" vertex="1">
          <mxGeometry x="123.50000000000003" y="262" width="121" height="37" as="geometry" />
        </mxCell>
        <mxCell id="10YVXtvrBUSu_6T0aO4W-9" value="" style="ellipse;html=1;shape=endState;fillColor=#000000;strokeColor=#ff0000;" parent="10YVXtvrBUSu_6T0aO4W-4" vertex="1">
          <mxGeometry x="169" y="354" width="30" height="30" as="geometry" />
        </mxCell>
        <mxCell id="10YVXtvrBUSu_6T0aO4W-10" style="edgeStyle=orthogonalEdgeStyle;rounded=0;orthogonalLoop=1;jettySize=auto;html=1;exitX=0.5;exitY=1;exitDx=0;exitDy=0;" parent="10YVXtvrBUSu_6T0aO4W-4" source="10YVXtvrBUSu_6T0aO4W-8" target="10YVXtvrBUSu_6T0aO4W-9" edge="1">
          <mxGeometry relative="1" as="geometry">
            <mxPoint x="184" y="357" as="targetPoint" />
          </mxGeometry>
        </mxCell>
        <mxCell id="10YVXtvrBUSu_6T0aO4W-11" style="edgeStyle=orthogonalEdgeStyle;rounded=0;orthogonalLoop=1;jettySize=auto;html=1;exitX=0.5;exitY=1;exitDx=0;exitDy=0;entryX=0.5;entryY=0;entryDx=0;entryDy=0;" parent="10YVXtvrBUSu_6T0aO4W-4" source="10YVXtvrBUSu_6T0aO4W-13" target="10YVXtvrBUSu_6T0aO4W-8" edge="1">
          <mxGeometry relative="1" as="geometry" />
        </mxCell>
        <mxCell id="10YVXtvrBUSu_6T0aO4W-13" value="" style="rhombus;whiteSpace=wrap;html=1;" parent="10YVXtvrBUSu_6T0aO4W-4" vertex="1">
          <mxGeometry x="161.5" y="159" width="45" height="45" as="geometry" />
        </mxCell>
        <mxCell id="10YVXtvrBUSu_6T0aO4W-14" value="Да" style="text;html=1;align=center;verticalAlign=middle;resizable=0;points=[];autosize=1;strokeColor=none;fillColor=none;" parent="10YVXtvrBUSu_6T0aO4W-4" vertex="1">
          <mxGeometry x="175" y="205" width="40" height="30" as="geometry" />
        </mxCell>
        <mxCell id="10YVXtvrBUSu_6T0aO4W-17" value="Вывести ссобщение" style="rounded=1;whiteSpace=wrap;html=1;" parent="10YVXtvrBUSu_6T0aO4W-4" vertex="1">
          <mxGeometry x="8" y="163" width="121" height="37" as="geometry" />
        </mxCell>
        <mxCell id="10YVXtvrBUSu_6T0aO4W-18" style="edgeStyle=orthogonalEdgeStyle;rounded=0;orthogonalLoop=1;jettySize=auto;html=1;exitX=0;exitY=0.5;exitDx=0;exitDy=0;entryX=1;entryY=0.5;entryDx=0;entryDy=0;" parent="10YVXtvrBUSu_6T0aO4W-4" source="10YVXtvrBUSu_6T0aO4W-13" target="10YVXtvrBUSu_6T0aO4W-17" edge="1">
          <mxGeometry relative="1" as="geometry" />
        </mxCell>
        <mxCell id="10YVXtvrBUSu_6T0aO4W-19" value="Нет" style="text;html=1;align=center;verticalAlign=middle;resizable=0;points=[];autosize=1;strokeColor=none;fillColor=none;" parent="10YVXtvrBUSu_6T0aO4W-4" vertex="1">
          <mxGeometry x="129" y="157" width="40" height="30" as="geometry" />
        </mxCell>
        <mxCell id="10YVXtvrBUSu_6T0aO4W-3" value="Данные валидны" style="text;html=1;align=center;verticalAlign=middle;resizable=0;points=[];autosize=1;strokeColor=none;fillColor=none;" parent="10YVXtvrBUSu_6T0aO4W-4" vertex="1">
          <mxGeometry x="8" y="119" width="114" height="26" as="geometry" />
        </mxCell>
        <mxCell id="10YVXtvrBUSu_6T0aO4W-20" style="edgeStyle=orthogonalEdgeStyle;rounded=0;orthogonalLoop=1;jettySize=auto;html=1;exitX=0;exitY=0.5;exitDx=0;exitDy=0;" parent="1" source="10YVXtvrBUSu_6T0aO4W-6" target="10YVXtvrBUSu_6T0aO4W-2" edge="1">
          <mxGeometry relative="1" as="geometry" />
        </mxCell>
        <mxCell id="10YVXtvrBUSu_6T0aO4W-21" style="edgeStyle=orthogonalEdgeStyle;rounded=0;orthogonalLoop=1;jettySize=auto;html=1;exitX=0.5;exitY=1;exitDx=0;exitDy=0;entryX=0.5;entryY=0;entryDx=0;entryDy=0;" parent="1" source="10YVXtvrBUSu_6T0aO4W-2" target="10YVXtvrBUSu_6T0aO4W-13" edge="1">
          <mxGeometry relative="1" as="geometry" />
        </mxCell>
        <mxCell id="10YVXtvrBUSu_6T0aO4W-22" value="Авторизация" style="text;html=1;align=center;verticalAlign=middle;resizable=0;points=[];autosize=1;strokeColor=none;fillColor=none;" parent="1" vertex="1">
          <mxGeometry x="248" y="400" width="90" height="26" as="geometry" />
        </mxCell>
        <mxCell id="10YVXtvrBUSu_6T0aO4W-23" style="edgeStyle=orthogonalEdgeStyle;rounded=0;orthogonalLoop=1;jettySize=auto;html=1;exitX=0;exitY=0.5;exitDx=0;exitDy=0;entryX=0;entryY=0.5;entryDx=0;entryDy=0;" parent="1" source="10YVXtvrBUSu_6T0aO4W-17" target="10YVXtvrBUSu_6T0aO4W-2" edge="1">
          <mxGeometry relative="1" as="geometry" />
        </mxCell>
        <mxCell id="0_kxWiFTvjECWxzNLdXu-44" value="Администратор" style="swimlane;" parent="1" vertex="1">
          <mxGeometry x="600" y="430" width="253" height="400" as="geometry" />
        </mxCell>
        <mxCell id="0_kxWiFTvjECWxzNLdXu-45" value="Ввод необходимых полей" style="rounded=1;whiteSpace=wrap;html=1;" parent="0_kxWiFTvjECWxzNLdXu-44" vertex="1">
          <mxGeometry x="84" y="79" width="120" height="40" as="geometry" />
        </mxCell>
        <mxCell id="0_kxWiFTvjECWxzNLdXu-46" value="Система" style="swimlane;" parent="1" vertex="1">
          <mxGeometry x="854" y="430" width="256" height="400" as="geometry" />
        </mxCell>
        <mxCell id="0_kxWiFTvjECWxzNLdXu-47" value="" style="ellipse;html=1;shape=startState;fillColor=#000000;strokeColor=#ff0000;" parent="0_kxWiFTvjECWxzNLdXu-46" vertex="1">
          <mxGeometry x="110" y="24" width="45" height="45" as="geometry" />
        </mxCell>
        <mxCell id="0_kxWiFTvjECWxzNLdXu-48" value="Вывод формы добавления групп" style="rounded=1;whiteSpace=wrap;html=1;" parent="0_kxWiFTvjECWxzNLdXu-46" vertex="1">
          <mxGeometry x="70" y="79" width="125" height="40" as="geometry" />
        </mxCell>
        <mxCell id="0_kxWiFTvjECWxzNLdXu-49" value="" style="edgeStyle=orthogonalEdgeStyle;html=1;verticalAlign=bottom;endArrow=open;endSize=8;strokeColor=#ff0000;rounded=0;" parent="0_kxWiFTvjECWxzNLdXu-46" source="0_kxWiFTvjECWxzNLdXu-47" target="0_kxWiFTvjECWxzNLdXu-48" edge="1">
          <mxGeometry relative="1" as="geometry">
            <mxPoint x="-249" y="269" as="targetPoint" />
          </mxGeometry>
        </mxCell>
        <mxCell id="0_kxWiFTvjECWxzNLdXu-50" value="Добавление группы и список всех групп" style="rounded=1;whiteSpace=wrap;html=1;" parent="0_kxWiFTvjECWxzNLdXu-46" vertex="1">
          <mxGeometry x="123.50000000000003" y="262" width="121" height="37" as="geometry" />
        </mxCell>
        <mxCell id="0_kxWiFTvjECWxzNLdXu-51" value="" style="ellipse;html=1;shape=endState;fillColor=#000000;strokeColor=#ff0000;" parent="0_kxWiFTvjECWxzNLdXu-46" vertex="1">
          <mxGeometry x="169" y="354" width="30" height="30" as="geometry" />
        </mxCell>
        <mxCell id="0_kxWiFTvjECWxzNLdXu-52" style="edgeStyle=orthogonalEdgeStyle;rounded=0;orthogonalLoop=1;jettySize=auto;html=1;exitX=0.5;exitY=1;exitDx=0;exitDy=0;" parent="0_kxWiFTvjECWxzNLdXu-46" source="0_kxWiFTvjECWxzNLdXu-50" target="0_kxWiFTvjECWxzNLdXu-51" edge="1">
          <mxGeometry relative="1" as="geometry">
            <mxPoint x="184" y="357" as="targetPoint" />
          </mxGeometry>
        </mxCell>
        <mxCell id="0_kxWiFTvjECWxzNLdXu-53" style="edgeStyle=orthogonalEdgeStyle;rounded=0;orthogonalLoop=1;jettySize=auto;html=1;exitX=0.5;exitY=1;exitDx=0;exitDy=0;entryX=0.5;entryY=0;entryDx=0;entryDy=0;" parent="0_kxWiFTvjECWxzNLdXu-46" source="0_kxWiFTvjECWxzNLdXu-54" target="0_kxWiFTvjECWxzNLdXu-50" edge="1">
          <mxGeometry relative="1" as="geometry" />
        </mxCell>
        <mxCell id="0_kxWiFTvjECWxzNLdXu-54" value="" style="rhombus;whiteSpace=wrap;html=1;" parent="0_kxWiFTvjECWxzNLdXu-46" vertex="1">
          <mxGeometry x="161.5" y="159" width="45" height="45" as="geometry" />
        </mxCell>
        <mxCell id="0_kxWiFTvjECWxzNLdXu-55" value="Да" style="text;html=1;align=center;verticalAlign=middle;resizable=0;points=[];autosize=1;strokeColor=none;fillColor=none;" parent="0_kxWiFTvjECWxzNLdXu-46" vertex="1">
          <mxGeometry x="175" y="205" width="40" height="30" as="geometry" />
        </mxCell>
        <mxCell id="0_kxWiFTvjECWxzNLdXu-56" value="Вывести ссобщение" style="rounded=1;whiteSpace=wrap;html=1;" parent="0_kxWiFTvjECWxzNLdXu-46" vertex="1">
          <mxGeometry x="8" y="163" width="121" height="37" as="geometry" />
        </mxCell>
        <mxCell id="0_kxWiFTvjECWxzNLdXu-57" style="edgeStyle=orthogonalEdgeStyle;rounded=0;orthogonalLoop=1;jettySize=auto;html=1;exitX=0;exitY=0.5;exitDx=0;exitDy=0;entryX=1;entryY=0.5;entryDx=0;entryDy=0;" parent="0_kxWiFTvjECWxzNLdXu-46" source="0_kxWiFTvjECWxzNLdXu-54" target="0_kxWiFTvjECWxzNLdXu-56" edge="1">
          <mxGeometry relative="1" as="geometry" />
        </mxCell>
        <mxCell id="0_kxWiFTvjECWxzNLdXu-58" value="Нет" style="text;html=1;align=center;verticalAlign=middle;resizable=0;points=[];autosize=1;strokeColor=none;fillColor=none;" parent="0_kxWiFTvjECWxzNLdXu-46" vertex="1">
          <mxGeometry x="129" y="157" width="40" height="30" as="geometry" />
        </mxCell>
        <mxCell id="0_kxWiFTvjECWxzNLdXu-59" value="Данные валидны" style="text;html=1;align=center;verticalAlign=middle;resizable=0;points=[];autosize=1;strokeColor=none;fillColor=none;" parent="0_kxWiFTvjECWxzNLdXu-46" vertex="1">
          <mxGeometry x="7" y="119" width="114" height="26" as="geometry" />
        </mxCell>
        <mxCell id="0_kxWiFTvjECWxzNLdXu-60" style="edgeStyle=orthogonalEdgeStyle;rounded=0;orthogonalLoop=1;jettySize=auto;html=1;exitX=0;exitY=0.5;exitDx=0;exitDy=0;" parent="1" source="0_kxWiFTvjECWxzNLdXu-48" target="0_kxWiFTvjECWxzNLdXu-45" edge="1">
          <mxGeometry relative="1" as="geometry" />
        </mxCell>
        <mxCell id="0_kxWiFTvjECWxzNLdXu-61" style="edgeStyle=orthogonalEdgeStyle;rounded=0;orthogonalLoop=1;jettySize=auto;html=1;exitX=0.5;exitY=1;exitDx=0;exitDy=0;entryX=0.5;entryY=0;entryDx=0;entryDy=0;" parent="1" source="0_kxWiFTvjECWxzNLdXu-45" target="0_kxWiFTvjECWxzNLdXu-54" edge="1">
          <mxGeometry relative="1" as="geometry" />
        </mxCell>
        <mxCell id="0_kxWiFTvjECWxzNLdXu-62" value="Добавление группы" style="text;html=1;align=center;verticalAlign=middle;resizable=0;points=[];autosize=1;strokeColor=none;fillColor=none;" parent="1" vertex="1">
          <mxGeometry x="788" y="398" width="130" height="30" as="geometry" />
        </mxCell>
        <mxCell id="0_kxWiFTvjECWxzNLdXu-63" style="edgeStyle=orthogonalEdgeStyle;rounded=0;orthogonalLoop=1;jettySize=auto;html=1;exitX=0;exitY=0.5;exitDx=0;exitDy=0;entryX=0;entryY=0.5;entryDx=0;entryDy=0;" parent="1" source="0_kxWiFTvjECWxzNLdXu-56" target="0_kxWiFTvjECWxzNLdXu-45" edge="1">
          <mxGeometry relative="1" as="geometry" />
        </mxCell>
        <mxCell id="0_kxWiFTvjECWxzNLdXu-64" value="Пользователь" style="swimlane;" parent="1" vertex="1">
          <mxGeometry x="41" y="901" width="253" height="400" as="geometry" />
        </mxCell>
        <mxCell id="0_kxWiFTvjECWxzNLdXu-65" value="Выбор поддерживаемых форматов файлов и групп" style="rounded=1;whiteSpace=wrap;html=1;" parent="0_kxWiFTvjECWxzNLdXu-64" vertex="1">
          <mxGeometry x="83" y="70.5" width="120" height="59" as="geometry" />
        </mxCell>
        <mxCell id="0_kxWiFTvjECWxzNLdXu-66" value="Система" style="swimlane;" parent="1" vertex="1">
          <mxGeometry x="294" y="901" width="256" height="400" as="geometry" />
        </mxCell>
        <mxCell id="0_kxWiFTvjECWxzNLdXu-67" value="" style="ellipse;html=1;shape=startState;fillColor=#000000;strokeColor=#ff0000;" parent="0_kxWiFTvjECWxzNLdXu-66" vertex="1">
          <mxGeometry x="110" y="24" width="45" height="45" as="geometry" />
        </mxCell>
        <mxCell id="0_kxWiFTvjECWxzNLdXu-68" value="Форма добавления файлов" style="rounded=1;whiteSpace=wrap;html=1;" parent="0_kxWiFTvjECWxzNLdXu-66" vertex="1">
          <mxGeometry x="70" y="79" width="125" height="40" as="geometry" />
        </mxCell>
        <mxCell id="0_kxWiFTvjECWxzNLdXu-69" value="" style="edgeStyle=orthogonalEdgeStyle;html=1;verticalAlign=bottom;endArrow=open;endSize=8;strokeColor=#ff0000;rounded=0;" parent="0_kxWiFTvjECWxzNLdXu-66" source="0_kxWiFTvjECWxzNLdXu-67" target="0_kxWiFTvjECWxzNLdXu-68" edge="1">
          <mxGeometry relative="1" as="geometry">
            <mxPoint x="-249" y="269" as="targetPoint" />
          </mxGeometry>
        </mxCell>
        <mxCell id="0_kxWiFTvjECWxzNLdXu-70" value="Добавление файла к группе, список добавленных файлов по группам" style="rounded=1;whiteSpace=wrap;html=1;" parent="0_kxWiFTvjECWxzNLdXu-66" vertex="1">
          <mxGeometry x="123.5" y="240" width="121" height="70" as="geometry" />
        </mxCell>
        <mxCell id="0_kxWiFTvjECWxzNLdXu-71" value="" style="ellipse;html=1;shape=endState;fillColor=#000000;strokeColor=#ff0000;" parent="0_kxWiFTvjECWxzNLdXu-66" vertex="1">
          <mxGeometry x="169" y="354" width="30" height="30" as="geometry" />
        </mxCell>
        <mxCell id="0_kxWiFTvjECWxzNLdXu-72" style="edgeStyle=orthogonalEdgeStyle;rounded=0;orthogonalLoop=1;jettySize=auto;html=1;exitX=0.5;exitY=1;exitDx=0;exitDy=0;" parent="0_kxWiFTvjECWxzNLdXu-66" source="0_kxWiFTvjECWxzNLdXu-70" target="0_kxWiFTvjECWxzNLdXu-71" edge="1">
          <mxGeometry relative="1" as="geometry">
            <mxPoint x="184" y="357" as="targetPoint" />
          </mxGeometry>
        </mxCell>
        <mxCell id="0_kxWiFTvjECWxzNLdXu-73" style="edgeStyle=orthogonalEdgeStyle;rounded=0;orthogonalLoop=1;jettySize=auto;html=1;exitX=0.5;exitY=1;exitDx=0;exitDy=0;entryX=0.5;entryY=0;entryDx=0;entryDy=0;" parent="0_kxWiFTvjECWxzNLdXu-66" source="0_kxWiFTvjECWxzNLdXu-74" target="0_kxWiFTvjECWxzNLdXu-70" edge="1">
          <mxGeometry relative="1" as="geometry" />
        </mxCell>
        <mxCell id="0_kxWiFTvjECWxzNLdXu-74" value="" style="rhombus;whiteSpace=wrap;html=1;" parent="0_kxWiFTvjECWxzNLdXu-66" vertex="1">
          <mxGeometry x="161.5" y="159" width="45" height="45" as="geometry" />
        </mxCell>
        <mxCell id="0_kxWiFTvjECWxzNLdXu-75" value="Да" style="text;html=1;align=center;verticalAlign=middle;resizable=0;points=[];autosize=1;strokeColor=none;fillColor=none;" parent="0_kxWiFTvjECWxzNLdXu-66" vertex="1">
          <mxGeometry x="175" y="205" width="40" height="30" as="geometry" />
        </mxCell>
        <mxCell id="0_kxWiFTvjECWxzNLdXu-76" value="Вывести ссобщение" style="rounded=1;whiteSpace=wrap;html=1;" parent="0_kxWiFTvjECWxzNLdXu-66" vertex="1">
          <mxGeometry x="8" y="163" width="121" height="37" as="geometry" />
        </mxCell>
        <mxCell id="0_kxWiFTvjECWxzNLdXu-77" style="edgeStyle=orthogonalEdgeStyle;rounded=0;orthogonalLoop=1;jettySize=auto;html=1;exitX=0;exitY=0.5;exitDx=0;exitDy=0;entryX=1;entryY=0.5;entryDx=0;entryDy=0;" parent="0_kxWiFTvjECWxzNLdXu-66" source="0_kxWiFTvjECWxzNLdXu-74" target="0_kxWiFTvjECWxzNLdXu-76" edge="1">
          <mxGeometry relative="1" as="geometry" />
        </mxCell>
        <mxCell id="0_kxWiFTvjECWxzNLdXu-78" value="Нет" style="text;html=1;align=center;verticalAlign=middle;resizable=0;points=[];autosize=1;strokeColor=none;fillColor=none;" parent="0_kxWiFTvjECWxzNLdXu-66" vertex="1">
          <mxGeometry x="129" y="157" width="40" height="30" as="geometry" />
        </mxCell>
        <mxCell id="0_kxWiFTvjECWxzNLdXu-79" value="Данные валидны" style="text;html=1;align=center;verticalAlign=middle;resizable=0;points=[];autosize=1;strokeColor=none;fillColor=none;" parent="0_kxWiFTvjECWxzNLdXu-66" vertex="1">
          <mxGeometry x="6" y="119" width="114" height="26" as="geometry" />
        </mxCell>
        <mxCell id="0_kxWiFTvjECWxzNLdXu-80" style="edgeStyle=orthogonalEdgeStyle;rounded=0;orthogonalLoop=1;jettySize=auto;html=1;exitX=0;exitY=0.5;exitDx=0;exitDy=0;" parent="1" source="0_kxWiFTvjECWxzNLdXu-68" target="0_kxWiFTvjECWxzNLdXu-65" edge="1">
          <mxGeometry relative="1" as="geometry" />
        </mxCell>
        <mxCell id="0_kxWiFTvjECWxzNLdXu-81" style="edgeStyle=orthogonalEdgeStyle;rounded=0;orthogonalLoop=1;jettySize=auto;html=1;entryX=0.5;entryY=0;entryDx=0;entryDy=0;" parent="1" source="0_kxWiFTvjECWxzNLdXu-65" target="0_kxWiFTvjECWxzNLdXu-74" edge="1">
          <mxGeometry relative="1" as="geometry">
            <Array as="points">
              <mxPoint x="184" y="1040" />
              <mxPoint x="478" y="1040" />
            </Array>
          </mxGeometry>
        </mxCell>
        <mxCell id="0_kxWiFTvjECWxzNLdXu-82" value="Добавление файла" style="text;html=1;align=center;verticalAlign=middle;resizable=0;points=[];autosize=1;strokeColor=none;fillColor=none;" parent="1" vertex="1">
          <mxGeometry x="228" y="869" width="130" height="30" as="geometry" />
        </mxCell>
        <mxCell id="0_kxWiFTvjECWxzNLdXu-83" style="edgeStyle=orthogonalEdgeStyle;rounded=0;orthogonalLoop=1;jettySize=auto;html=1;exitX=0;exitY=0.5;exitDx=0;exitDy=0;entryX=0;entryY=0.5;entryDx=0;entryDy=0;" parent="1" source="0_kxWiFTvjECWxzNLdXu-76" target="0_kxWiFTvjECWxzNLdXu-65" edge="1">
          <mxGeometry relative="1" as="geometry" />
        </mxCell>
        <mxCell id="i6C7HIf45CUl214jievr-1" value="Администратор" style="swimlane;" parent="1" vertex="1">
          <mxGeometry x="630" y="1382" width="253" height="738" as="geometry" />
        </mxCell>
        <mxCell id="i6C7HIf45CUl214jievr-2" value="Ввод необходимых полей" style="rounded=1;whiteSpace=wrap;html=1;" parent="i6C7HIf45CUl214jievr-1" vertex="1">
          <mxGeometry x="84" y="79" width="120" height="40" as="geometry" />
        </mxCell>
        <mxCell id="i6C7HIf45CUl214jievr-3" value="Система" style="swimlane;" parent="1" vertex="1">
          <mxGeometry x="884" y="1382" width="256" height="738" as="geometry" />
        </mxCell>
        <mxCell id="i6C7HIf45CUl214jievr-4" value="" style="ellipse;html=1;shape=startState;fillColor=#000000;strokeColor=#ff0000;" parent="i6C7HIf45CUl214jievr-3" vertex="1">
          <mxGeometry x="110" y="24" width="45" height="45" as="geometry" />
        </mxCell>
        <mxCell id="i6C7HIf45CUl214jievr-5" value="Вывод формы добавления групп" style="rounded=1;whiteSpace=wrap;html=1;" parent="i6C7HIf45CUl214jievr-3" vertex="1">
          <mxGeometry x="70" y="79" width="125" height="40" as="geometry" />
        </mxCell>
        <mxCell id="i6C7HIf45CUl214jievr-6" value="" style="edgeStyle=orthogonalEdgeStyle;html=1;verticalAlign=bottom;endArrow=open;endSize=8;strokeColor=#ff0000;rounded=0;" parent="i6C7HIf45CUl214jievr-3" source="i6C7HIf45CUl214jievr-4" target="i6C7HIf45CUl214jievr-5" edge="1">
          <mxGeometry relative="1" as="geometry">
            <mxPoint x="-249" y="269" as="targetPoint" />
          </mxGeometry>
        </mxCell>
        <mxCell id="i6C7HIf45CUl214jievr-7" value="Вывод пользователей и группы, к которой он относится" style="rounded=1;whiteSpace=wrap;html=1;" parent="i6C7HIf45CUl214jievr-3" vertex="1">
          <mxGeometry x="123.5" y="598" width="121" height="58" as="geometry" />
        </mxCell>
        <mxCell id="i6C7HIf45CUl214jievr-8" value="" style="ellipse;html=1;shape=endState;fillColor=#000000;strokeColor=#ff0000;" parent="i6C7HIf45CUl214jievr-3" vertex="1">
          <mxGeometry x="169" y="689" width="30" height="30" as="geometry" />
        </mxCell>
        <mxCell id="i6C7HIf45CUl214jievr-9" style="edgeStyle=orthogonalEdgeStyle;rounded=0;orthogonalLoop=1;jettySize=auto;html=1;exitX=0.5;exitY=1;exitDx=0;exitDy=0;" parent="i6C7HIf45CUl214jievr-3" source="i6C7HIf45CUl214jievr-7" edge="1">
          <mxGeometry relative="1" as="geometry">
            <mxPoint x="184" y="688" as="targetPoint" />
          </mxGeometry>
        </mxCell>
        <mxCell id="i6C7HIf45CUl214jievr-11" value="" style="rhombus;whiteSpace=wrap;html=1;" parent="i6C7HIf45CUl214jievr-3" vertex="1">
          <mxGeometry x="161.5" y="159" width="45" height="45" as="geometry" />
        </mxCell>
        <mxCell id="i6C7HIf45CUl214jievr-12" value="Да" style="text;html=1;align=center;verticalAlign=middle;resizable=0;points=[];autosize=1;strokeColor=none;fillColor=none;" parent="i6C7HIf45CUl214jievr-3" vertex="1">
          <mxGeometry x="175" y="205" width="40" height="30" as="geometry" />
        </mxCell>
        <mxCell id="i6C7HIf45CUl214jievr-13" value="Вывести ссобщение" style="rounded=1;whiteSpace=wrap;html=1;" parent="i6C7HIf45CUl214jievr-3" vertex="1">
          <mxGeometry x="8" y="163" width="121" height="37" as="geometry" />
        </mxCell>
        <mxCell id="i6C7HIf45CUl214jievr-14" style="edgeStyle=orthogonalEdgeStyle;rounded=0;orthogonalLoop=1;jettySize=auto;html=1;exitX=0;exitY=0.5;exitDx=0;exitDy=0;entryX=1;entryY=0.5;entryDx=0;entryDy=0;" parent="i6C7HIf45CUl214jievr-3" source="i6C7HIf45CUl214jievr-11" target="i6C7HIf45CUl214jievr-13" edge="1">
          <mxGeometry relative="1" as="geometry" />
        </mxCell>
        <mxCell id="i6C7HIf45CUl214jievr-15" value="Нет" style="text;html=1;align=center;verticalAlign=middle;resizable=0;points=[];autosize=1;strokeColor=none;fillColor=none;" parent="i6C7HIf45CUl214jievr-3" vertex="1">
          <mxGeometry x="129" y="157" width="40" height="30" as="geometry" />
        </mxCell>
        <mxCell id="i6C7HIf45CUl214jievr-16" value="Данные валидны" style="text;html=1;align=center;verticalAlign=middle;resizable=0;points=[];autosize=1;strokeColor=none;fillColor=none;" parent="i6C7HIf45CUl214jievr-3" vertex="1">
          <mxGeometry x="15" y="119" width="114" height="26" as="geometry" />
        </mxCell>
        <mxCell id="YXJf4WpVPB4HUOJY3AtF-4" style="edgeStyle=orthogonalEdgeStyle;rounded=0;orthogonalLoop=1;jettySize=auto;html=1;" parent="i6C7HIf45CUl214jievr-3" source="YXJf4WpVPB4HUOJY3AtF-1" target="YXJf4WpVPB4HUOJY3AtF-3" edge="1">
          <mxGeometry relative="1" as="geometry" />
        </mxCell>
        <mxCell id="YXJf4WpVPB4HUOJY3AtF-1" value="Добавление пользователя в Ubuntu Server" style="rounded=1;whiteSpace=wrap;html=1;" parent="i6C7HIf45CUl214jievr-3" vertex="1">
          <mxGeometry x="123.5" y="240" width="121" height="40" as="geometry" />
        </mxCell>
        <mxCell id="YXJf4WpVPB4HUOJY3AtF-2" value="" style="edgeStyle=orthogonalEdgeStyle;rounded=0;orthogonalLoop=1;jettySize=auto;html=1;exitX=0.5;exitY=1;exitDx=0;exitDy=0;entryX=0.5;entryY=0;entryDx=0;entryDy=0;" parent="i6C7HIf45CUl214jievr-3" source="i6C7HIf45CUl214jievr-11" target="YXJf4WpVPB4HUOJY3AtF-1" edge="1">
          <mxGeometry relative="1" as="geometry">
            <mxPoint x="1068" y="1586" as="sourcePoint" />
            <mxPoint x="1068" y="1800" as="targetPoint" />
          </mxGeometry>
        </mxCell>
        <mxCell id="YXJf4WpVPB4HUOJY3AtF-7" style="edgeStyle=orthogonalEdgeStyle;rounded=0;orthogonalLoop=1;jettySize=auto;html=1;entryX=0.5;entryY=0;entryDx=0;entryDy=0;" parent="i6C7HIf45CUl214jievr-3" source="YXJf4WpVPB4HUOJY3AtF-3" target="YXJf4WpVPB4HUOJY3AtF-5" edge="1">
          <mxGeometry relative="1" as="geometry" />
        </mxCell>
        <mxCell id="YXJf4WpVPB4HUOJY3AtF-3" value="Добавление пользователя в Samba" style="rounded=1;whiteSpace=wrap;html=1;" parent="i6C7HIf45CUl214jievr-3" vertex="1">
          <mxGeometry x="123.5" y="308" width="121" height="42" as="geometry" />
        </mxCell>
        <mxCell id="YXJf4WpVPB4HUOJY3AtF-8" style="edgeStyle=orthogonalEdgeStyle;rounded=0;orthogonalLoop=1;jettySize=auto;html=1;entryX=0.5;entryY=0;entryDx=0;entryDy=0;" parent="i6C7HIf45CUl214jievr-3" source="YXJf4WpVPB4HUOJY3AtF-5" target="YXJf4WpVPB4HUOJY3AtF-6" edge="1">
          <mxGeometry relative="1" as="geometry" />
        </mxCell>
        <mxCell id="YXJf4WpVPB4HUOJY3AtF-5" value="Добавление пользователя в базу данных и их создание для него" style="rounded=1;whiteSpace=wrap;html=1;" parent="i6C7HIf45CUl214jievr-3" vertex="1">
          <mxGeometry x="123.5" y="378" width="121" height="58" as="geometry" />
        </mxCell>
        <mxCell id="YXJf4WpVPB4HUOJY3AtF-9" style="edgeStyle=orthogonalEdgeStyle;rounded=0;orthogonalLoop=1;jettySize=auto;html=1;entryX=0.5;entryY=0;entryDx=0;entryDy=0;" parent="i6C7HIf45CUl214jievr-3" source="YXJf4WpVPB4HUOJY3AtF-6" target="i6C7HIf45CUl214jievr-7" edge="1">
          <mxGeometry relative="1" as="geometry" />
        </mxCell>
        <mxCell id="YXJf4WpVPB4HUOJY3AtF-6" value="Создание папок для сайтов в домашней директории пользователя и активация сайтов в Apache" style="rounded=1;whiteSpace=wrap;html=1;" parent="i6C7HIf45CUl214jievr-3" vertex="1">
          <mxGeometry x="123.5" y="458" width="121" height="108" as="geometry" />
        </mxCell>
        <mxCell id="i6C7HIf45CUl214jievr-17" style="edgeStyle=orthogonalEdgeStyle;rounded=0;orthogonalLoop=1;jettySize=auto;html=1;exitX=0;exitY=0.5;exitDx=0;exitDy=0;" parent="1" source="i6C7HIf45CUl214jievr-5" target="i6C7HIf45CUl214jievr-2" edge="1">
          <mxGeometry relative="1" as="geometry" />
        </mxCell>
        <mxCell id="i6C7HIf45CUl214jievr-18" style="edgeStyle=orthogonalEdgeStyle;rounded=0;orthogonalLoop=1;jettySize=auto;html=1;exitX=0.5;exitY=1;exitDx=0;exitDy=0;entryX=0.5;entryY=0;entryDx=0;entryDy=0;" parent="1" source="i6C7HIf45CUl214jievr-2" target="i6C7HIf45CUl214jievr-11" edge="1">
          <mxGeometry relative="1" as="geometry" />
        </mxCell>
        <mxCell id="i6C7HIf45CUl214jievr-19" value="Добавление пользователя" style="text;html=1;align=center;verticalAlign=middle;resizable=0;points=[];autosize=1;strokeColor=none;fillColor=none;" parent="1" vertex="1">
          <mxGeometry x="798" y="1350" width="170" height="30" as="geometry" />
        </mxCell>
        <mxCell id="i6C7HIf45CUl214jievr-20" style="edgeStyle=orthogonalEdgeStyle;rounded=0;orthogonalLoop=1;jettySize=auto;html=1;exitX=0;exitY=0.5;exitDx=0;exitDy=0;entryX=0;entryY=0.5;entryDx=0;entryDy=0;" parent="1" source="i6C7HIf45CUl214jievr-13" target="i6C7HIf45CUl214jievr-2" edge="1">
          <mxGeometry relative="1" as="geometry" />
        </mxCell>
        <mxCell id="i6C7HIf45CUl214jievr-21" value="Администратор" style="swimlane;" parent="1" vertex="1">
          <mxGeometry x="600" y="902" width="253" height="400" as="geometry" />
        </mxCell>
        <mxCell id="i6C7HIf45CUl214jievr-22" value="Удаление пользователей относящихся к данной группе" style="rounded=1;whiteSpace=wrap;html=1;" parent="i6C7HIf45CUl214jievr-21" vertex="1">
          <mxGeometry x="84" y="64.5" width="120" height="69" as="geometry" />
        </mxCell>
        <mxCell id="i6C7HIf45CUl214jievr-23" value="Система" style="swimlane;" parent="1" vertex="1">
          <mxGeometry x="854" y="902" width="256" height="400" as="geometry" />
        </mxCell>
        <mxCell id="i6C7HIf45CUl214jievr-24" value="" style="ellipse;html=1;shape=startState;fillColor=#000000;strokeColor=#ff0000;" parent="i6C7HIf45CUl214jievr-23" vertex="1">
          <mxGeometry x="110" y="24" width="45" height="45" as="geometry" />
        </mxCell>
        <mxCell id="i6C7HIf45CUl214jievr-25" value="Вывод формы добавления групп" style="rounded=1;whiteSpace=wrap;html=1;" parent="i6C7HIf45CUl214jievr-23" vertex="1">
          <mxGeometry x="70" y="79" width="125" height="40" as="geometry" />
        </mxCell>
        <mxCell id="i6C7HIf45CUl214jievr-26" value="" style="edgeStyle=orthogonalEdgeStyle;html=1;verticalAlign=bottom;endArrow=open;endSize=8;strokeColor=#ff0000;rounded=0;" parent="i6C7HIf45CUl214jievr-23" source="i6C7HIf45CUl214jievr-24" target="i6C7HIf45CUl214jievr-25" edge="1">
          <mxGeometry relative="1" as="geometry">
            <mxPoint x="-249" y="269" as="targetPoint" />
          </mxGeometry>
        </mxCell>
        <mxCell id="i6C7HIf45CUl214jievr-27" value="Добавление группы и список всех групп" style="rounded=1;whiteSpace=wrap;html=1;" parent="i6C7HIf45CUl214jievr-23" vertex="1">
          <mxGeometry x="123.50000000000003" y="262" width="121" height="37" as="geometry" />
        </mxCell>
        <mxCell id="i6C7HIf45CUl214jievr-28" value="" style="ellipse;html=1;shape=endState;fillColor=#000000;strokeColor=#ff0000;" parent="i6C7HIf45CUl214jievr-23" vertex="1">
          <mxGeometry x="169" y="354" width="30" height="30" as="geometry" />
        </mxCell>
        <mxCell id="i6C7HIf45CUl214jievr-29" style="edgeStyle=orthogonalEdgeStyle;rounded=0;orthogonalLoop=1;jettySize=auto;html=1;exitX=0.5;exitY=1;exitDx=0;exitDy=0;" parent="i6C7HIf45CUl214jievr-23" source="i6C7HIf45CUl214jievr-27" target="i6C7HIf45CUl214jievr-28" edge="1">
          <mxGeometry relative="1" as="geometry">
            <mxPoint x="184" y="357" as="targetPoint" />
          </mxGeometry>
        </mxCell>
        <mxCell id="i6C7HIf45CUl214jievr-30" style="edgeStyle=orthogonalEdgeStyle;rounded=0;orthogonalLoop=1;jettySize=auto;html=1;exitX=0.5;exitY=1;exitDx=0;exitDy=0;entryX=0.5;entryY=0;entryDx=0;entryDy=0;" parent="i6C7HIf45CUl214jievr-23" source="i6C7HIf45CUl214jievr-31" target="i6C7HIf45CUl214jievr-27" edge="1">
          <mxGeometry relative="1" as="geometry" />
        </mxCell>
        <mxCell id="i6C7HIf45CUl214jievr-31" value="" style="rhombus;whiteSpace=wrap;html=1;" parent="i6C7HIf45CUl214jievr-23" vertex="1">
          <mxGeometry x="161.5" y="159" width="45" height="45" as="geometry" />
        </mxCell>
        <mxCell id="i6C7HIf45CUl214jievr-32" value="Да" style="text;html=1;align=center;verticalAlign=middle;resizable=0;points=[];autosize=1;strokeColor=none;fillColor=none;" parent="i6C7HIf45CUl214jievr-23" vertex="1">
          <mxGeometry x="175" y="205" width="40" height="30" as="geometry" />
        </mxCell>
        <mxCell id="i6C7HIf45CUl214jievr-33" value="Вывести ссобщение" style="rounded=1;whiteSpace=wrap;html=1;" parent="i6C7HIf45CUl214jievr-23" vertex="1">
          <mxGeometry x="8" y="163" width="121" height="37" as="geometry" />
        </mxCell>
        <mxCell id="i6C7HIf45CUl214jievr-34" style="edgeStyle=orthogonalEdgeStyle;rounded=0;orthogonalLoop=1;jettySize=auto;html=1;exitX=0;exitY=0.5;exitDx=0;exitDy=0;entryX=1;entryY=0.5;entryDx=0;entryDy=0;" parent="i6C7HIf45CUl214jievr-23" source="i6C7HIf45CUl214jievr-31" target="i6C7HIf45CUl214jievr-33" edge="1">
          <mxGeometry relative="1" as="geometry" />
        </mxCell>
        <mxCell id="i6C7HIf45CUl214jievr-35" value="Нет" style="text;html=1;align=center;verticalAlign=middle;resizable=0;points=[];autosize=1;strokeColor=none;fillColor=none;" parent="i6C7HIf45CUl214jievr-23" vertex="1">
          <mxGeometry x="129" y="157" width="40" height="30" as="geometry" />
        </mxCell>
        <mxCell id="i6C7HIf45CUl214jievr-36" value="Данные валидны" style="text;html=1;align=center;verticalAlign=middle;resizable=0;points=[];autosize=1;strokeColor=none;fillColor=none;" parent="i6C7HIf45CUl214jievr-23" vertex="1">
          <mxGeometry x="15" y="119" width="114" height="26" as="geometry" />
        </mxCell>
        <mxCell id="i6C7HIf45CUl214jievr-37" style="edgeStyle=orthogonalEdgeStyle;rounded=0;orthogonalLoop=1;jettySize=auto;html=1;exitX=0;exitY=0.5;exitDx=0;exitDy=0;" parent="1" source="i6C7HIf45CUl214jievr-25" target="i6C7HIf45CUl214jievr-22" edge="1">
          <mxGeometry relative="1" as="geometry" />
        </mxCell>
        <mxCell id="i6C7HIf45CUl214jievr-38" style="edgeStyle=orthogonalEdgeStyle;rounded=0;orthogonalLoop=1;jettySize=auto;html=1;entryX=0.5;entryY=0;entryDx=0;entryDy=0;" parent="1" source="i6C7HIf45CUl214jievr-22" target="i6C7HIf45CUl214jievr-31" edge="1">
          <mxGeometry relative="1" as="geometry">
            <Array as="points">
              <mxPoint x="744" y="1050" />
              <mxPoint x="1038" y="1050" />
            </Array>
          </mxGeometry>
        </mxCell>
        <mxCell id="i6C7HIf45CUl214jievr-39" value="Удаление группы" style="text;html=1;align=center;verticalAlign=middle;resizable=0;points=[];autosize=1;strokeColor=none;fillColor=none;" parent="1" vertex="1">
          <mxGeometry x="788" y="869" width="120" height="30" as="geometry" />
        </mxCell>
        <mxCell id="i6C7HIf45CUl214jievr-40" style="edgeStyle=orthogonalEdgeStyle;rounded=0;orthogonalLoop=1;jettySize=auto;html=1;exitX=0;exitY=0.5;exitDx=0;exitDy=0;entryX=0;entryY=0.5;entryDx=0;entryDy=0;" parent="1" source="i6C7HIf45CUl214jievr-33" target="i6C7HIf45CUl214jievr-22" edge="1">
          <mxGeometry relative="1" as="geometry" />
        </mxCell>
        <mxCell id="i6C7HIf45CUl214jievr-61" value="Администратор" style="swimlane;" parent="1" vertex="1">
          <mxGeometry x="1210" y="1381" width="253" height="739" as="geometry" />
        </mxCell>
        <mxCell id="i6C7HIf45CUl214jievr-62" value="Ввод необходимых полей" style="rounded=1;whiteSpace=wrap;html=1;" parent="i6C7HIf45CUl214jievr-61" vertex="1">
          <mxGeometry x="84" y="79" width="120" height="40" as="geometry" />
        </mxCell>
        <mxCell id="i6C7HIf45CUl214jievr-63" value="Система" style="swimlane;" parent="1" vertex="1">
          <mxGeometry x="1464" y="1381" width="256" height="739" as="geometry" />
        </mxCell>
        <mxCell id="i6C7HIf45CUl214jievr-64" value="" style="ellipse;html=1;shape=startState;fillColor=#000000;strokeColor=#ff0000;" parent="i6C7HIf45CUl214jievr-63" vertex="1">
          <mxGeometry x="110" y="24" width="45" height="45" as="geometry" />
        </mxCell>
        <mxCell id="i6C7HIf45CUl214jievr-65" value="Вывод формы добавления групп" style="rounded=1;whiteSpace=wrap;html=1;" parent="i6C7HIf45CUl214jievr-63" vertex="1">
          <mxGeometry x="70" y="79" width="125" height="40" as="geometry" />
        </mxCell>
        <mxCell id="i6C7HIf45CUl214jievr-66" value="" style="edgeStyle=orthogonalEdgeStyle;html=1;verticalAlign=bottom;endArrow=open;endSize=8;strokeColor=#ff0000;rounded=0;" parent="i6C7HIf45CUl214jievr-63" source="i6C7HIf45CUl214jievr-64" target="i6C7HIf45CUl214jievr-65" edge="1">
          <mxGeometry relative="1" as="geometry">
            <mxPoint x="-249" y="269" as="targetPoint" />
          </mxGeometry>
        </mxCell>
        <mxCell id="i6C7HIf45CUl214jievr-70" style="edgeStyle=orthogonalEdgeStyle;rounded=0;orthogonalLoop=1;jettySize=auto;html=1;exitX=0.5;exitY=1;exitDx=0;exitDy=0;entryX=0.5;entryY=0;entryDx=0;entryDy=0;" parent="i6C7HIf45CUl214jievr-63" source="i6C7HIf45CUl214jievr-71" edge="1">
          <mxGeometry relative="1" as="geometry">
            <mxPoint x="184" y="262" as="targetPoint" />
          </mxGeometry>
        </mxCell>
        <mxCell id="i6C7HIf45CUl214jievr-71" value="" style="rhombus;whiteSpace=wrap;html=1;" parent="i6C7HIf45CUl214jievr-63" vertex="1">
          <mxGeometry x="161.5" y="159" width="45" height="45" as="geometry" />
        </mxCell>
        <mxCell id="i6C7HIf45CUl214jievr-72" value="Да" style="text;html=1;align=center;verticalAlign=middle;resizable=0;points=[];autosize=1;strokeColor=none;fillColor=none;" parent="i6C7HIf45CUl214jievr-63" vertex="1">
          <mxGeometry x="175" y="205" width="40" height="30" as="geometry" />
        </mxCell>
        <mxCell id="i6C7HIf45CUl214jievr-73" value="Вывести ссобщение" style="rounded=1;whiteSpace=wrap;html=1;" parent="i6C7HIf45CUl214jievr-63" vertex="1">
          <mxGeometry x="8" y="163" width="121" height="37" as="geometry" />
        </mxCell>
        <mxCell id="i6C7HIf45CUl214jievr-74" style="edgeStyle=orthogonalEdgeStyle;rounded=0;orthogonalLoop=1;jettySize=auto;html=1;exitX=0;exitY=0.5;exitDx=0;exitDy=0;entryX=1;entryY=0.5;entryDx=0;entryDy=0;" parent="i6C7HIf45CUl214jievr-63" source="i6C7HIf45CUl214jievr-71" target="i6C7HIf45CUl214jievr-73" edge="1">
          <mxGeometry relative="1" as="geometry" />
        </mxCell>
        <mxCell id="i6C7HIf45CUl214jievr-75" value="Нет" style="text;html=1;align=center;verticalAlign=middle;resizable=0;points=[];autosize=1;strokeColor=none;fillColor=none;" parent="i6C7HIf45CUl214jievr-63" vertex="1">
          <mxGeometry x="129" y="157" width="40" height="30" as="geometry" />
        </mxCell>
        <mxCell id="i6C7HIf45CUl214jievr-76" value="Данные валидны" style="text;html=1;align=center;verticalAlign=middle;resizable=0;points=[];autosize=1;strokeColor=none;fillColor=none;" parent="i6C7HIf45CUl214jievr-63" vertex="1">
          <mxGeometry x="26" y="119" width="114" height="26" as="geometry" />
        </mxCell>
        <mxCell id="YXJf4WpVPB4HUOJY3AtF-22" style="edgeStyle=orthogonalEdgeStyle;rounded=0;orthogonalLoop=1;jettySize=auto;html=1;entryX=0.5;entryY=0;entryDx=0;entryDy=0;" parent="i6C7HIf45CUl214jievr-63" source="YXJf4WpVPB4HUOJY3AtF-11" target="YXJf4WpVPB4HUOJY3AtF-21" edge="1">
          <mxGeometry relative="1" as="geometry" />
        </mxCell>
        <mxCell id="YXJf4WpVPB4HUOJY3AtF-11" value="Выбор пользователя" style="rounded=1;whiteSpace=wrap;html=1;" parent="i6C7HIf45CUl214jievr-63" vertex="1">
          <mxGeometry x="123.5" y="259" width="121" height="58" as="geometry" />
        </mxCell>
        <mxCell id="YXJf4WpVPB4HUOJY3AtF-23" style="edgeStyle=orthogonalEdgeStyle;rounded=0;orthogonalLoop=1;jettySize=auto;html=1;entryX=0.5;entryY=0;entryDx=0;entryDy=0;" parent="i6C7HIf45CUl214jievr-63" source="YXJf4WpVPB4HUOJY3AtF-21" target="YXJf4WpVPB4HUOJY3AtF-19" edge="1">
          <mxGeometry relative="1" as="geometry" />
        </mxCell>
        <mxCell id="YXJf4WpVPB4HUOJY3AtF-21" value="Удаление папок для сайтов в домашней директории пользователя и деактивация сайтов в Apache" style="rounded=1;whiteSpace=wrap;html=1;" parent="i6C7HIf45CUl214jievr-63" vertex="1">
          <mxGeometry x="123.5" y="339" width="121" height="108" as="geometry" />
        </mxCell>
        <mxCell id="YXJf4WpVPB4HUOJY3AtF-24" style="edgeStyle=orthogonalEdgeStyle;rounded=0;orthogonalLoop=1;jettySize=auto;html=1;entryX=0.5;entryY=0;entryDx=0;entryDy=0;" parent="i6C7HIf45CUl214jievr-63" source="YXJf4WpVPB4HUOJY3AtF-19" target="YXJf4WpVPB4HUOJY3AtF-17" edge="1">
          <mxGeometry relative="1" as="geometry" />
        </mxCell>
        <mxCell id="YXJf4WpVPB4HUOJY3AtF-19" value="Удаление пользователя и его баз данных" style="rounded=1;whiteSpace=wrap;html=1;" parent="i6C7HIf45CUl214jievr-63" vertex="1">
          <mxGeometry x="123.5" y="469" width="121" height="58" as="geometry" />
        </mxCell>
        <mxCell id="YXJf4WpVPB4HUOJY3AtF-25" style="edgeStyle=orthogonalEdgeStyle;rounded=0;orthogonalLoop=1;jettySize=auto;html=1;" parent="i6C7HIf45CUl214jievr-63" source="YXJf4WpVPB4HUOJY3AtF-17" target="YXJf4WpVPB4HUOJY3AtF-15" edge="1">
          <mxGeometry relative="1" as="geometry" />
        </mxCell>
        <mxCell id="YXJf4WpVPB4HUOJY3AtF-17" value="Удаление пользователя в Samba" style="rounded=1;whiteSpace=wrap;html=1;" parent="i6C7HIf45CUl214jievr-63" vertex="1">
          <mxGeometry x="123.5" y="549" width="121" height="42" as="geometry" />
        </mxCell>
        <mxCell id="YXJf4WpVPB4HUOJY3AtF-26" style="edgeStyle=orthogonalEdgeStyle;rounded=0;orthogonalLoop=1;jettySize=auto;html=1;entryX=0.5;entryY=0;entryDx=0;entryDy=0;" parent="i6C7HIf45CUl214jievr-63" source="YXJf4WpVPB4HUOJY3AtF-15" target="YXJf4WpVPB4HUOJY3AtF-12" edge="1">
          <mxGeometry relative="1" as="geometry" />
        </mxCell>
        <mxCell id="YXJf4WpVPB4HUOJY3AtF-15" value="Удаление пользователя в Ubuntu Server" style="rounded=1;whiteSpace=wrap;html=1;" parent="i6C7HIf45CUl214jievr-63" vertex="1">
          <mxGeometry x="123.5" y="609" width="121" height="40" as="geometry" />
        </mxCell>
        <mxCell id="YXJf4WpVPB4HUOJY3AtF-12" value="" style="ellipse;html=1;shape=endState;fillColor=#000000;strokeColor=#ff0000;" parent="i6C7HIf45CUl214jievr-63" vertex="1">
          <mxGeometry x="169" y="679" width="30" height="30" as="geometry" />
        </mxCell>
        <mxCell id="i6C7HIf45CUl214jievr-77" style="edgeStyle=orthogonalEdgeStyle;rounded=0;orthogonalLoop=1;jettySize=auto;html=1;exitX=0;exitY=0.5;exitDx=0;exitDy=0;" parent="1" source="i6C7HIf45CUl214jievr-65" target="i6C7HIf45CUl214jievr-62" edge="1">
          <mxGeometry relative="1" as="geometry" />
        </mxCell>
        <mxCell id="i6C7HIf45CUl214jievr-78" style="edgeStyle=orthogonalEdgeStyle;rounded=0;orthogonalLoop=1;jettySize=auto;html=1;exitX=0.5;exitY=1;exitDx=0;exitDy=0;entryX=0.5;entryY=0;entryDx=0;entryDy=0;" parent="1" source="i6C7HIf45CUl214jievr-62" target="i6C7HIf45CUl214jievr-71" edge="1">
          <mxGeometry relative="1" as="geometry" />
        </mxCell>
        <mxCell id="i6C7HIf45CUl214jievr-79" value="Удаление пользователя" style="text;html=1;align=center;verticalAlign=middle;resizable=0;points=[];autosize=1;strokeColor=none;fillColor=none;" parent="1" vertex="1">
          <mxGeometry x="1383" y="1349" width="160" height="30" as="geometry" />
        </mxCell>
        <mxCell id="i6C7HIf45CUl214jievr-80" style="edgeStyle=orthogonalEdgeStyle;rounded=0;orthogonalLoop=1;jettySize=auto;html=1;exitX=0;exitY=0.5;exitDx=0;exitDy=0;entryX=0;entryY=0.5;entryDx=0;entryDy=0;" parent="1" source="i6C7HIf45CUl214jievr-73" target="i6C7HIf45CUl214jievr-62" edge="1">
          <mxGeometry relative="1" as="geometry" />
        </mxCell>
        <mxCell id="oVx_LZAYIA9juO6IZNLZ-1" value="Пользователь" style="swimlane;" vertex="1" parent="1">
          <mxGeometry x="1150" y="699" width="253" height="400" as="geometry" />
        </mxCell>
        <mxCell id="oVx_LZAYIA9juO6IZNLZ-2" value="Ввод необходимых полей" style="rounded=1;whiteSpace=wrap;html=1;" vertex="1" parent="oVx_LZAYIA9juO6IZNLZ-1">
          <mxGeometry x="84" y="79" width="120" height="40" as="geometry" />
        </mxCell>
        <mxCell id="oVx_LZAYIA9juO6IZNLZ-3" value="Система" style="swimlane;" vertex="1" parent="1">
          <mxGeometry x="1403" y="699" width="256" height="400" as="geometry" />
        </mxCell>
        <mxCell id="oVx_LZAYIA9juO6IZNLZ-4" value="" style="ellipse;html=1;shape=startState;fillColor=#000000;strokeColor=#ff0000;" vertex="1" parent="oVx_LZAYIA9juO6IZNLZ-3">
          <mxGeometry x="110" y="24" width="45" height="45" as="geometry" />
        </mxCell>
        <mxCell id="oVx_LZAYIA9juO6IZNLZ-5" value="Вывод формы авторизации" style="rounded=1;whiteSpace=wrap;html=1;" vertex="1" parent="oVx_LZAYIA9juO6IZNLZ-3">
          <mxGeometry x="70" y="79" width="125" height="40" as="geometry" />
        </mxCell>
        <mxCell id="oVx_LZAYIA9juO6IZNLZ-6" value="" style="edgeStyle=orthogonalEdgeStyle;html=1;verticalAlign=bottom;endArrow=open;endSize=8;strokeColor=#ff0000;rounded=0;" edge="1" parent="oVx_LZAYIA9juO6IZNLZ-3" source="oVx_LZAYIA9juO6IZNLZ-4" target="oVx_LZAYIA9juO6IZNLZ-5">
          <mxGeometry relative="1" as="geometry">
            <mxPoint x="-249" y="269" as="targetPoint" />
          </mxGeometry>
        </mxCell>
        <mxCell id="oVx_LZAYIA9juO6IZNLZ-7" value="Переход на главную страницу" style="rounded=1;whiteSpace=wrap;html=1;" vertex="1" parent="oVx_LZAYIA9juO6IZNLZ-3">
          <mxGeometry x="123.50000000000003" y="262" width="121" height="37" as="geometry" />
        </mxCell>
        <mxCell id="oVx_LZAYIA9juO6IZNLZ-8" value="" style="ellipse;html=1;shape=endState;fillColor=#000000;strokeColor=#ff0000;" vertex="1" parent="oVx_LZAYIA9juO6IZNLZ-3">
          <mxGeometry x="169" y="354" width="30" height="30" as="geometry" />
        </mxCell>
        <mxCell id="oVx_LZAYIA9juO6IZNLZ-9" style="edgeStyle=orthogonalEdgeStyle;rounded=0;orthogonalLoop=1;jettySize=auto;html=1;exitX=0.5;exitY=1;exitDx=0;exitDy=0;" edge="1" parent="oVx_LZAYIA9juO6IZNLZ-3" source="oVx_LZAYIA9juO6IZNLZ-7" target="oVx_LZAYIA9juO6IZNLZ-8">
          <mxGeometry relative="1" as="geometry">
            <mxPoint x="184" y="357" as="targetPoint" />
          </mxGeometry>
        </mxCell>
        <mxCell id="oVx_LZAYIA9juO6IZNLZ-10" style="edgeStyle=orthogonalEdgeStyle;rounded=0;orthogonalLoop=1;jettySize=auto;html=1;exitX=0.5;exitY=1;exitDx=0;exitDy=0;entryX=0.5;entryY=0;entryDx=0;entryDy=0;" edge="1" parent="oVx_LZAYIA9juO6IZNLZ-3" source="oVx_LZAYIA9juO6IZNLZ-11" target="oVx_LZAYIA9juO6IZNLZ-7">
          <mxGeometry relative="1" as="geometry" />
        </mxCell>
        <mxCell id="oVx_LZAYIA9juO6IZNLZ-11" value="" style="rhombus;whiteSpace=wrap;html=1;" vertex="1" parent="oVx_LZAYIA9juO6IZNLZ-3">
          <mxGeometry x="161.5" y="159" width="45" height="45" as="geometry" />
        </mxCell>
        <mxCell id="oVx_LZAYIA9juO6IZNLZ-12" value="Да" style="text;html=1;align=center;verticalAlign=middle;resizable=0;points=[];autosize=1;strokeColor=none;fillColor=none;" vertex="1" parent="oVx_LZAYIA9juO6IZNLZ-3">
          <mxGeometry x="175" y="205" width="40" height="30" as="geometry" />
        </mxCell>
        <mxCell id="oVx_LZAYIA9juO6IZNLZ-13" value="Вывести ссобщение" style="rounded=1;whiteSpace=wrap;html=1;" vertex="1" parent="oVx_LZAYIA9juO6IZNLZ-3">
          <mxGeometry x="8" y="163" width="121" height="37" as="geometry" />
        </mxCell>
        <mxCell id="oVx_LZAYIA9juO6IZNLZ-14" style="edgeStyle=orthogonalEdgeStyle;rounded=0;orthogonalLoop=1;jettySize=auto;html=1;exitX=0;exitY=0.5;exitDx=0;exitDy=0;entryX=1;entryY=0.5;entryDx=0;entryDy=0;" edge="1" parent="oVx_LZAYIA9juO6IZNLZ-3" source="oVx_LZAYIA9juO6IZNLZ-11" target="oVx_LZAYIA9juO6IZNLZ-13">
          <mxGeometry relative="1" as="geometry" />
        </mxCell>
        <mxCell id="oVx_LZAYIA9juO6IZNLZ-15" value="Нет" style="text;html=1;align=center;verticalAlign=middle;resizable=0;points=[];autosize=1;strokeColor=none;fillColor=none;" vertex="1" parent="oVx_LZAYIA9juO6IZNLZ-3">
          <mxGeometry x="129" y="157" width="40" height="30" as="geometry" />
        </mxCell>
        <mxCell id="oVx_LZAYIA9juO6IZNLZ-16" value="Данные валидны" style="text;html=1;align=center;verticalAlign=middle;resizable=0;points=[];autosize=1;strokeColor=none;fillColor=none;" vertex="1" parent="oVx_LZAYIA9juO6IZNLZ-3">
          <mxGeometry x="8" y="119" width="114" height="26" as="geometry" />
        </mxCell>
        <mxCell id="oVx_LZAYIA9juO6IZNLZ-17" style="edgeStyle=orthogonalEdgeStyle;rounded=0;orthogonalLoop=1;jettySize=auto;html=1;exitX=0;exitY=0.5;exitDx=0;exitDy=0;" edge="1" parent="1" source="oVx_LZAYIA9juO6IZNLZ-5" target="oVx_LZAYIA9juO6IZNLZ-2">
          <mxGeometry relative="1" as="geometry" />
        </mxCell>
        <mxCell id="oVx_LZAYIA9juO6IZNLZ-18" style="edgeStyle=orthogonalEdgeStyle;rounded=0;orthogonalLoop=1;jettySize=auto;html=1;exitX=0.5;exitY=1;exitDx=0;exitDy=0;entryX=0.5;entryY=0;entryDx=0;entryDy=0;" edge="1" parent="1" source="oVx_LZAYIA9juO6IZNLZ-2" target="oVx_LZAYIA9juO6IZNLZ-11">
          <mxGeometry relative="1" as="geometry" />
        </mxCell>
        <mxCell id="oVx_LZAYIA9juO6IZNLZ-19" value="Выход из системы" style="text;html=1;align=center;verticalAlign=middle;resizable=0;points=[];autosize=1;strokeColor=none;fillColor=none;" vertex="1" parent="1">
          <mxGeometry x="1346" y="669" width="130" height="30" as="geometry" />
        </mxCell>
        <mxCell id="oVx_LZAYIA9juO6IZNLZ-20" style="edgeStyle=orthogonalEdgeStyle;rounded=0;orthogonalLoop=1;jettySize=auto;html=1;exitX=0;exitY=0.5;exitDx=0;exitDy=0;entryX=0;entryY=0.5;entryDx=0;entryDy=0;" edge="1" parent="1" source="oVx_LZAYIA9juO6IZNLZ-13" target="oVx_LZAYIA9juO6IZNLZ-2">
          <mxGeometry relative="1" as="geometry" />
        </mxCell>
      </root>
    </mxGraphModel>
  </diagram>
  <diagram id="w2UXmCnWte8MOeNLptyk" name="Диаграмма последовательности">
    <mxGraphModel dx="1434" dy="836" grid="1" gridSize="10" guides="1" tooltips="1" connect="1" arrows="1" fold="1" page="1" pageScale="1" pageWidth="827" pageHeight="1169" math="0" shadow="0">
      <root>
        <mxCell id="0" />
        <mxCell id="1" parent="0" />
        <mxCell id="AvhizaLENc5mdc6YIrxU-30" value="1" style="shape=umlFrame;whiteSpace=wrap;html=1;pointerEvents=0;labelBackgroundColor=none;fillColor=#60a917;fontColor=#ffffff;strokeColor=#2D7600;" vertex="1" parent="1">
          <mxGeometry width="827" height="846" as="geometry" />
        </mxCell>
        <mxCell id="AvhizaLENc5mdc6YIrxU-31" value="Валидные" style="shape=umlFrame;whiteSpace=wrap;html=1;labelBackgroundColor=none;fontFamily=Helvetica;fontSize=11;width=80;height=27;movable=1;resizable=1;rotatable=1;deletable=1;editable=1;locked=0;connectable=1;fillColor=#60a917;fontColor=#ffffff;strokeColor=#2D7600;" vertex="1" parent="1">
          <mxGeometry x="80" y="213" width="700" height="497" as="geometry" />
        </mxCell>
        <mxCell id="AvhizaLENc5mdc6YIrxU-32" value="Найден по логину" style="shape=umlFrame;whiteSpace=wrap;html=1;labelBackgroundColor=none;fontFamily=Helvetica;fontSize=11;width=80;height=27;" vertex="1" parent="1">
          <mxGeometry x="90" y="250" width="650" height="360" as="geometry" />
        </mxCell>
        <mxCell id="AvhizaLENc5mdc6YIrxU-33" value="Пароль совпадает" style="shape=umlFrame;whiteSpace=wrap;html=1;labelBackgroundColor=none;fontFamily=Helvetica;fontSize=11;width=80;height=27;" vertex="1" parent="1">
          <mxGeometry x="100" y="330" width="620" height="190" as="geometry" />
        </mxCell>
        <mxCell id="AvhizaLENc5mdc6YIrxU-34" value="Пользователь" style="shape=umlLifeline;perimeter=lifelinePerimeter;whiteSpace=wrap;html=1;container=1;collapsible=0;recursiveResize=0;outlineConnect=0;labelBackgroundColor=none;fontFamily=Helvetica;fontSize=11;" vertex="1" parent="1">
          <mxGeometry x="140" y="40" width="120" height="760" as="geometry" />
        </mxCell>
        <mxCell id="AvhizaLENc5mdc6YIrxU-35" value="" style="html=1;points=[];perimeter=orthogonalPerimeter;labelBackgroundColor=none;fontFamily=Helvetica;fontSize=11;" vertex="1" parent="AvhizaLENc5mdc6YIrxU-34">
          <mxGeometry x="55" y="80" width="10" height="350" as="geometry" />
        </mxCell>
        <mxCell id="AvhizaLENc5mdc6YIrxU-36" value="" style="ellipse;html=1;shape=endState;labelBackgroundColor=none;fontFamily=Helvetica;fontSize=11;" vertex="1" parent="AvhizaLENc5mdc6YIrxU-34">
          <mxGeometry x="45" y="440" width="30" height="30" as="geometry" />
        </mxCell>
        <mxCell id="AvhizaLENc5mdc6YIrxU-37" value="" style="html=1;points=[];perimeter=orthogonalPerimeter;labelBackgroundColor=none;fontFamily=Helvetica;fontSize=11;" vertex="1" parent="1">
          <mxGeometry x="195" y="710" width="10" height="40" as="geometry" />
        </mxCell>
        <mxCell id="AvhizaLENc5mdc6YIrxU-38" value="Не найден по логину" style="shape=umlFrame;whiteSpace=wrap;html=1;labelBackgroundColor=none;fontFamily=Helvetica;fontSize=11;width=80;height=27;" vertex="1" parent="1">
          <mxGeometry x="90" y="610" width="650" height="90" as="geometry" />
        </mxCell>
        <mxCell id="AvhizaLENc5mdc6YIrxU-39" value="Невалидные" style="shape=umlFrame;whiteSpace=wrap;html=1;labelBackgroundColor=none;fontFamily=Helvetica;fontSize=11;width=80;height=30;movable=1;resizable=1;rotatable=1;deletable=1;editable=1;locked=0;connectable=1;fillColor=#a20025;fontColor=#ffffff;strokeColor=#6F0000;" vertex="1" parent="1">
          <mxGeometry x="80" y="710" width="700" height="90" as="geometry" />
        </mxCell>
        <mxCell id="AvhizaLENc5mdc6YIrxU-40" value="Система" style="shape=umlLifeline;perimeter=lifelinePerimeter;whiteSpace=wrap;html=1;container=1;collapsible=0;recursiveResize=0;outlineConnect=0;labelBackgroundColor=none;fontFamily=Helvetica;fontSize=11;" vertex="1" parent="1">
          <mxGeometry x="300" y="40" width="120" height="760" as="geometry" />
        </mxCell>
        <mxCell id="AvhizaLENc5mdc6YIrxU-41" value="Валидация данных" style="html=1;verticalAlign=bottom;endArrow=block;rounded=0;labelBackgroundColor=none;fontFamily=Helvetica;fontSize=11;fontColor=default;shape=connector;curved=0;" edge="1" parent="AvhizaLENc5mdc6YIrxU-40" source="AvhizaLENc5mdc6YIrxU-42" target="AvhizaLENc5mdc6YIrxU-43">
          <mxGeometry x="0.0968" width="80" relative="1" as="geometry">
            <mxPoint x="64" y="110" as="sourcePoint" />
            <mxPoint x="130" y="150" as="targetPoint" />
            <Array as="points">
              <mxPoint x="130" y="100" />
              <mxPoint x="130" y="130" />
              <mxPoint x="100" y="130" />
            </Array>
            <mxPoint as="offset" />
          </mxGeometry>
        </mxCell>
        <mxCell id="AvhizaLENc5mdc6YIrxU-42" value="" style="html=1;points=[];perimeter=orthogonalPerimeter;labelBackgroundColor=none;fontFamily=Helvetica;fontSize=11;" vertex="1" parent="AvhizaLENc5mdc6YIrxU-40">
          <mxGeometry x="55" y="90" width="10" height="110" as="geometry" />
        </mxCell>
        <mxCell id="AvhizaLENc5mdc6YIrxU-43" value="" style="html=1;points=[];perimeter=orthogonalPerimeter;labelBackgroundColor=none;fontFamily=Helvetica;fontSize=11;" vertex="1" parent="AvhizaLENc5mdc6YIrxU-40">
          <mxGeometry x="60" y="130" width="10" height="20" as="geometry" />
        </mxCell>
        <mxCell id="AvhizaLENc5mdc6YIrxU-44" value="" style="html=1;points=[];perimeter=orthogonalPerimeter;labelBackgroundColor=none;fontFamily=Helvetica;fontSize=11;" vertex="1" parent="1">
          <mxGeometry x="355" y="710" width="10" height="40" as="geometry" />
        </mxCell>
        <mxCell id="AvhizaLENc5mdc6YIrxU-45" value="Запрос авторизации" style="html=1;verticalAlign=bottom;endArrow=block;rounded=0;labelBackgroundColor=none;fontFamily=Helvetica;fontSize=11;fontColor=default;shape=connector;curved=0;" edge="1" parent="1" source="AvhizaLENc5mdc6YIrxU-35" target="AvhizaLENc5mdc6YIrxU-42">
          <mxGeometry x="0.0032" width="80" relative="1" as="geometry">
            <mxPoint x="200" y="140" as="sourcePoint" />
            <mxPoint x="280" y="140" as="targetPoint" />
            <Array as="points">
              <mxPoint x="280" y="130" />
            </Array>
            <mxPoint as="offset" />
          </mxGeometry>
        </mxCell>
        <mxCell id="AvhizaLENc5mdc6YIrxU-46" value="Компонент аунтификации" style="shape=umlLifeline;perimeter=lifelinePerimeter;whiteSpace=wrap;html=1;container=1;collapsible=0;recursiveResize=0;outlineConnect=0;labelBackgroundColor=none;fontFamily=Helvetica;fontSize=11;" vertex="1" parent="1">
          <mxGeometry x="460" y="40" width="120" height="760" as="geometry" />
        </mxCell>
        <mxCell id="AvhizaLENc5mdc6YIrxU-47" value="" style="html=1;points=[];perimeter=orthogonalPerimeter;labelBackgroundColor=none;fontFamily=Helvetica;fontSize=11;" vertex="1" parent="AvhizaLENc5mdc6YIrxU-46">
          <mxGeometry x="55" y="190.75" width="10" height="239.25" as="geometry" />
        </mxCell>
        <mxCell id="AvhizaLENc5mdc6YIrxU-48" value="Отправка данных" style="html=1;verticalAlign=bottom;endArrow=block;rounded=0;labelBackgroundColor=none;fontFamily=Helvetica;fontSize=11;fontColor=default;shape=connector;curved=0;" edge="1" parent="AvhizaLENc5mdc6YIrxU-46">
          <mxGeometry x="0.0032" width="80" relative="1" as="geometry">
            <mxPoint x="-95" y="190" as="sourcePoint" />
            <mxPoint x="55" y="190" as="targetPoint" />
            <Array as="points">
              <mxPoint x="-20" y="190" />
            </Array>
            <mxPoint as="offset" />
          </mxGeometry>
        </mxCell>
        <mxCell id="AvhizaLENc5mdc6YIrxU-49" value="База данных" style="shape=umlLifeline;perimeter=lifelinePerimeter;whiteSpace=wrap;html=1;container=1;collapsible=0;recursiveResize=0;outlineConnect=0;labelBackgroundColor=none;fontFamily=Helvetica;fontSize=11;" vertex="1" parent="1">
          <mxGeometry x="620" y="40" width="120" height="760" as="geometry" />
        </mxCell>
        <mxCell id="AvhizaLENc5mdc6YIrxU-50" value="" style="html=1;points=[];perimeter=orthogonalPerimeter;labelBackgroundColor=none;fontFamily=Helvetica;fontSize=11;" vertex="1" parent="AvhizaLENc5mdc6YIrxU-49">
          <mxGeometry x="55" y="200" width="10" height="70" as="geometry" />
        </mxCell>
        <mxCell id="AvhizaLENc5mdc6YIrxU-51" value="Поиск по логину" style="html=1;verticalAlign=bottom;endArrow=block;rounded=0;labelBackgroundColor=none;fontFamily=Helvetica;fontSize=11;fontColor=default;shape=connector;curved=0;" edge="1" parent="1">
          <mxGeometry x="0.0032" width="80" relative="1" as="geometry">
            <mxPoint x="525" y="240" as="sourcePoint" />
            <mxPoint x="675" y="240" as="targetPoint" />
            <Array as="points" />
            <mxPoint as="offset" />
          </mxGeometry>
        </mxCell>
        <mxCell id="AvhizaLENc5mdc6YIrxU-52" value="Ответ 422 с названиями&lt;br&gt;ошибок по полям&amp;nbsp;" style="html=1;verticalAlign=bottom;endArrow=open;dashed=1;endSize=8;rounded=0;labelBackgroundColor=none;fontFamily=Helvetica;fontSize=11;fontColor=default;shape=connector;curved=0;" edge="1" parent="1" source="AvhizaLENc5mdc6YIrxU-44" target="AvhizaLENc5mdc6YIrxU-37">
          <mxGeometry x="0.0023" relative="1" as="geometry">
            <mxPoint x="310" y="760" as="sourcePoint" />
            <mxPoint x="210" y="760" as="targetPoint" />
            <Array as="points">
              <mxPoint x="280" y="740" />
            </Array>
            <mxPoint as="offset" />
          </mxGeometry>
        </mxCell>
        <mxCell id="AvhizaLENc5mdc6YIrxU-53" value="Ответ 200 с токеном &lt;br&gt;и данными пользователя (с ролью)&amp;nbsp;" style="html=1;verticalAlign=bottom;endArrow=open;dashed=1;endSize=8;rounded=0;labelBackgroundColor=none;fontFamily=Helvetica;fontSize=11;fontColor=default;shape=connector;curved=0;" edge="1" parent="1">
          <mxGeometry x="0.0023" relative="1" as="geometry">
            <mxPoint x="515" y="460" as="sourcePoint" />
            <mxPoint x="205" y="460" as="targetPoint" />
            <Array as="points">
              <mxPoint x="400" y="460" />
            </Array>
            <mxPoint as="offset" />
          </mxGeometry>
        </mxCell>
        <mxCell id="AvhizaLENc5mdc6YIrxU-54" value="" style="html=1;verticalAlign=bottom;endArrow=open;dashed=1;endSize=8;rounded=0;labelBackgroundColor=none;fontFamily=Helvetica;fontSize=11;fontColor=default;shape=connector;curved=0;" edge="1" parent="1">
          <mxGeometry x="0.0023" relative="1" as="geometry">
            <mxPoint x="673" y="270" as="sourcePoint" />
            <mxPoint x="525" y="270" as="targetPoint" />
            <Array as="points">
              <mxPoint x="578" y="270" />
              <mxPoint x="558" y="270" />
            </Array>
            <mxPoint as="offset" />
          </mxGeometry>
        </mxCell>
        <mxCell id="AvhizaLENc5mdc6YIrxU-55" value="Возвращение хеша пароля" style="edgeLabel;html=1;align=center;verticalAlign=middle;resizable=0;points=[];fontFamily=Helvetica;fontSize=11;labelBackgroundColor=none;" vertex="1" connectable="0" parent="AvhizaLENc5mdc6YIrxU-54">
          <mxGeometry x="-0.0946" relative="1" as="geometry">
            <mxPoint x="-6" y="-10" as="offset" />
          </mxGeometry>
        </mxCell>
        <mxCell id="AvhizaLENc5mdc6YIrxU-56" value="Проверка пароля&lt;br&gt;&amp;nbsp;с хешем пароля" style="html=1;verticalAlign=bottom;endArrow=block;rounded=0;labelBackgroundColor=none;fontFamily=Helvetica;fontSize=11;fontColor=default;shape=connector;curved=0;" edge="1" parent="1" target="AvhizaLENc5mdc6YIrxU-57">
          <mxGeometry x="0.0968" width="80" relative="1" as="geometry">
            <mxPoint x="525" y="290" as="sourcePoint" />
            <mxPoint x="590" y="340" as="targetPoint" />
            <Array as="points">
              <mxPoint x="590" y="290" />
              <mxPoint x="590" y="320" />
              <mxPoint x="560" y="320" />
            </Array>
            <mxPoint as="offset" />
          </mxGeometry>
        </mxCell>
        <mxCell id="AvhizaLENc5mdc6YIrxU-57" value="" style="html=1;points=[];perimeter=orthogonalPerimeter;labelBackgroundColor=none;fontFamily=Helvetica;fontSize=11;" vertex="1" parent="1">
          <mxGeometry x="520" y="320" width="10" height="20" as="geometry" />
        </mxCell>
        <mxCell id="AvhizaLENc5mdc6YIrxU-58" value="Пароль не совпадает" style="shape=umlFrame;whiteSpace=wrap;html=1;labelBackgroundColor=none;fontFamily=Helvetica;fontSize=11;width=80;height=27;" vertex="1" parent="1">
          <mxGeometry x="100" y="520" width="620" height="80" as="geometry" />
        </mxCell>
        <mxCell id="AvhizaLENc5mdc6YIrxU-59" value="" style="html=1;points=[];perimeter=orthogonalPerimeter;labelBackgroundColor=none;fontFamily=Helvetica;fontSize=11;" vertex="1" parent="1">
          <mxGeometry x="195" y="520" width="10" height="30" as="geometry" />
        </mxCell>
        <mxCell id="AvhizaLENc5mdc6YIrxU-60" value="" style="ellipse;html=1;shape=endState;labelBackgroundColor=none;fontFamily=Helvetica;fontSize=11;" vertex="1" parent="1">
          <mxGeometry x="185" y="560" width="30" height="30" as="geometry" />
        </mxCell>
        <mxCell id="AvhizaLENc5mdc6YIrxU-61" value="Ответ 401&amp;nbsp;" style="html=1;verticalAlign=bottom;endArrow=open;dashed=1;endSize=8;rounded=0;labelBackgroundColor=none;fontFamily=Helvetica;fontSize=11;fontColor=default;shape=connector;curved=0;" edge="1" parent="1">
          <mxGeometry x="0.0023" relative="1" as="geometry">
            <mxPoint x="515" y="539.6600000000001" as="sourcePoint" />
            <mxPoint x="205" y="539.6600000000001" as="targetPoint" />
            <Array as="points">
              <mxPoint x="400" y="539.6600000000001" />
            </Array>
            <mxPoint as="offset" />
          </mxGeometry>
        </mxCell>
        <mxCell id="AvhizaLENc5mdc6YIrxU-62" value="" style="html=1;points=[];perimeter=orthogonalPerimeter;labelBackgroundColor=none;fontFamily=Helvetica;fontSize=11;" vertex="1" parent="1">
          <mxGeometry x="515" y="520" width="10" height="30" as="geometry" />
        </mxCell>
        <mxCell id="AvhizaLENc5mdc6YIrxU-63" value="" style="ellipse;html=1;shape=endState;labelBackgroundColor=none;fontFamily=Helvetica;fontSize=11;direction=south;" vertex="1" parent="1">
          <mxGeometry x="185" y="660" width="30" height="30" as="geometry" />
        </mxCell>
        <mxCell id="AvhizaLENc5mdc6YIrxU-64" value="" style="html=1;points=[];perimeter=orthogonalPerimeter;labelBackgroundColor=none;fontFamily=Helvetica;fontSize=11;" vertex="1" parent="1">
          <mxGeometry x="675" y="610" width="10" height="30" as="geometry" />
        </mxCell>
        <mxCell id="AvhizaLENc5mdc6YIrxU-65" value="" style="html=1;verticalAlign=bottom;endArrow=open;dashed=1;endSize=8;rounded=0;labelBackgroundColor=none;fontFamily=Helvetica;fontSize=11;fontColor=default;shape=connector;curved=0;" edge="1" parent="1">
          <mxGeometry x="0.0023" relative="1" as="geometry">
            <mxPoint x="675" y="628" as="sourcePoint" />
            <mxPoint x="527" y="628" as="targetPoint" />
            <Array as="points">
              <mxPoint x="580" y="628" />
              <mxPoint x="560" y="628" />
            </Array>
            <mxPoint as="offset" />
          </mxGeometry>
        </mxCell>
        <mxCell id="AvhizaLENc5mdc6YIrxU-66" value="null" style="edgeLabel;html=1;align=center;verticalAlign=middle;resizable=0;points=[];fontFamily=Helvetica;fontSize=11;labelBackgroundColor=none;" vertex="1" connectable="0" parent="AvhizaLENc5mdc6YIrxU-65">
          <mxGeometry x="-0.0946" relative="1" as="geometry">
            <mxPoint x="-6" y="-10" as="offset" />
          </mxGeometry>
        </mxCell>
        <mxCell id="AvhizaLENc5mdc6YIrxU-67" value="" style="html=1;points=[];perimeter=orthogonalPerimeter;labelBackgroundColor=none;fontFamily=Helvetica;fontSize=11;" vertex="1" parent="1">
          <mxGeometry x="515" y="610" width="10" height="40" as="geometry" />
        </mxCell>
        <mxCell id="AvhizaLENc5mdc6YIrxU-68" value="Ответ 401&amp;nbsp;" style="html=1;verticalAlign=bottom;endArrow=open;dashed=1;endSize=8;rounded=0;labelBackgroundColor=none;fontFamily=Helvetica;fontSize=11;fontColor=default;shape=connector;curved=0;" edge="1" parent="1">
          <mxGeometry x="0.0023" relative="1" as="geometry">
            <mxPoint x="515" y="639.31" as="sourcePoint" />
            <mxPoint x="205" y="639.31" as="targetPoint" />
            <Array as="points">
              <mxPoint x="400" y="639.31" />
            </Array>
            <mxPoint as="offset" />
          </mxGeometry>
        </mxCell>
        <mxCell id="AvhizaLENc5mdc6YIrxU-69" value="" style="html=1;points=[];perimeter=orthogonalPerimeter;labelBackgroundColor=none;fontFamily=Helvetica;fontSize=11;" vertex="1" parent="1">
          <mxGeometry x="195" y="610" width="10" height="40" as="geometry" />
        </mxCell>
        <mxCell id="AvhizaLENc5mdc6YIrxU-70" value="" style="endArrow=none;dashed=1;html=1;rounded=0;labelBackgroundColor=none;fontFamily=Helvetica;fontSize=11;fontColor=default;shape=connector;curved=0;" edge="1" parent="1" target="AvhizaLENc5mdc6YIrxU-71">
          <mxGeometry width="50" height="50" relative="1" as="geometry">
            <mxPoint x="200" y="770" as="sourcePoint" />
            <mxPoint x="199.66" y="710" as="targetPoint" />
            <Array as="points" />
          </mxGeometry>
        </mxCell>
        <mxCell id="AvhizaLENc5mdc6YIrxU-71" value="" style="ellipse;html=1;shape=endState;labelBackgroundColor=none;fontFamily=Helvetica;fontSize=11;" vertex="1" parent="1">
          <mxGeometry x="185" y="760" width="30" height="30" as="geometry" />
        </mxCell>
        <mxCell id="AvhizaLENc5mdc6YIrxU-72" value="" style="html=1;points=[];perimeter=orthogonalPerimeter;labelBackgroundColor=none;fontFamily=Helvetica;fontSize=11;" vertex="1" parent="1">
          <mxGeometry x="520" y="400" width="10" height="20" as="geometry" />
        </mxCell>
        <mxCell id="AvhizaLENc5mdc6YIrxU-73" value="Генерация токена" style="html=1;verticalAlign=bottom;endArrow=block;rounded=0;labelBackgroundColor=none;fontFamily=Helvetica;fontSize=11;fontColor=default;shape=connector;curved=0;" edge="1" parent="1" target="AvhizaLENc5mdc6YIrxU-72">
          <mxGeometry x="0.0968" width="80" relative="1" as="geometry">
            <mxPoint x="524.9999999999998" y="369.9999999999999" as="sourcePoint" />
            <mxPoint x="595" y="420" as="targetPoint" />
            <Array as="points">
              <mxPoint x="595" y="370" />
              <mxPoint x="595" y="400" />
              <mxPoint x="565" y="400" />
            </Array>
            <mxPoint as="offset" />
          </mxGeometry>
        </mxCell>
        <mxCell id="AvhizaLENc5mdc6YIrxU-74" value="" style="html=1;points=[];perimeter=orthogonalPerimeter;labelBackgroundColor=none;fontFamily=Helvetica;fontSize=11;" vertex="1" parent="1">
          <mxGeometry x="675" y="430" width="10" height="30" as="geometry" />
        </mxCell>
        <mxCell id="AvhizaLENc5mdc6YIrxU-75" value="Запись пользователя" style="html=1;verticalAlign=bottom;endArrow=block;rounded=0;labelBackgroundColor=none;fontFamily=Helvetica;fontSize=11;fontColor=default;shape=connector;curved=0;" edge="1" parent="1">
          <mxGeometry x="0.0032" width="80" relative="1" as="geometry">
            <mxPoint x="525" y="430" as="sourcePoint" />
            <mxPoint x="675" y="430" as="targetPoint" />
            <Array as="points">
              <mxPoint x="600" y="430" />
            </Array>
            <mxPoint as="offset" />
          </mxGeometry>
        </mxCell>
        <mxCell id="AvhizaLENc5mdc6YIrxU-76" value="return" style="html=1;verticalAlign=bottom;endArrow=open;dashed=1;endSize=8;rounded=0;labelBackgroundColor=none;fontFamily=Helvetica;fontSize=11;fontColor=default;shape=connector;curved=0;" edge="1" parent="1" source="AvhizaLENc5mdc6YIrxU-74">
          <mxGeometry x="0.0023" relative="1" as="geometry">
            <mxPoint x="680" y="450" as="sourcePoint" />
            <mxPoint x="525" y="450" as="targetPoint" />
            <Array as="points">
              <mxPoint x="560" y="450" />
            </Array>
            <mxPoint as="offset" />
          </mxGeometry>
        </mxCell>
        <mxCell id="AvhizaLENc5mdc6YIrxU-77" value="Пользователь" style="shape=umlLifeline;perimeter=lifelinePerimeter;whiteSpace=wrap;html=1;container=1;collapsible=0;recursiveResize=0;outlineConnect=0;labelBackgroundColor=none;fontFamily=Helvetica;fontSize=11;" vertex="1" parent="1">
          <mxGeometry x="72" y="858" width="120" height="250" as="geometry" />
        </mxCell>
        <mxCell id="AvhizaLENc5mdc6YIrxU-78" value="" style="html=1;points=[];perimeter=orthogonalPerimeter;labelBackgroundColor=none;fontFamily=Helvetica;fontSize=11;" vertex="1" parent="AvhizaLENc5mdc6YIrxU-77">
          <mxGeometry x="55" y="80" width="10" height="140" as="geometry" />
        </mxCell>
        <mxCell id="AvhizaLENc5mdc6YIrxU-79" value="" style="ellipse;html=1;shape=endState;fontFamily=Helvetica;fontSize=11;labelBackgroundColor=none;" vertex="1" parent="AvhizaLENc5mdc6YIrxU-77">
          <mxGeometry x="45" y="230" width="30" height="30" as="geometry" />
        </mxCell>
        <mxCell id="AvhizaLENc5mdc6YIrxU-80" value="Система" style="shape=umlLifeline;perimeter=lifelinePerimeter;whiteSpace=wrap;html=1;container=1;collapsible=0;recursiveResize=0;outlineConnect=0;labelBackgroundColor=none;fontFamily=Helvetica;fontSize=11;" vertex="1" parent="1">
          <mxGeometry x="232" y="858" width="120" height="250" as="geometry" />
        </mxCell>
        <mxCell id="AvhizaLENc5mdc6YIrxU-81" value="" style="html=1;points=[];perimeter=orthogonalPerimeter;labelBackgroundColor=none;fontFamily=Helvetica;fontSize=11;" vertex="1" parent="AvhizaLENc5mdc6YIrxU-80">
          <mxGeometry x="55" y="90" width="10" height="90" as="geometry" />
        </mxCell>
        <mxCell id="AvhizaLENc5mdc6YIrxU-82" value="Запрос выхода" style="html=1;verticalAlign=bottom;endArrow=block;rounded=0;labelBackgroundColor=none;fontFamily=Helvetica;fontSize=11;fontColor=default;shape=connector;curved=0;" edge="1" parent="1" source="AvhizaLENc5mdc6YIrxU-78" target="AvhizaLENc5mdc6YIrxU-81">
          <mxGeometry x="0.0032" width="80" relative="1" as="geometry">
            <mxPoint x="132" y="958" as="sourcePoint" />
            <mxPoint x="212" y="958" as="targetPoint" />
            <Array as="points">
              <mxPoint x="212" y="948" />
            </Array>
            <mxPoint as="offset" />
          </mxGeometry>
        </mxCell>
        <mxCell id="AvhizaLENc5mdc6YIrxU-83" value="Компонент аунтификации" style="shape=umlLifeline;perimeter=lifelinePerimeter;whiteSpace=wrap;html=1;container=1;collapsible=0;recursiveResize=0;outlineConnect=0;labelBackgroundColor=none;fontFamily=Helvetica;fontSize=11;" vertex="1" parent="1">
          <mxGeometry x="392" y="858" width="120" height="250" as="geometry" />
        </mxCell>
        <mxCell id="AvhizaLENc5mdc6YIrxU-84" value="" style="html=1;points=[];perimeter=orthogonalPerimeter;labelBackgroundColor=none;fontFamily=Helvetica;fontSize=11;" vertex="1" parent="AvhizaLENc5mdc6YIrxU-83">
          <mxGeometry x="55" y="170" width="10" height="50" as="geometry" />
        </mxCell>
        <mxCell id="AvhizaLENc5mdc6YIrxU-85" value="База данных" style="shape=umlLifeline;perimeter=lifelinePerimeter;whiteSpace=wrap;html=1;container=1;collapsible=0;recursiveResize=0;outlineConnect=0;labelBackgroundColor=none;fontFamily=Helvetica;fontSize=11;" vertex="1" parent="1">
          <mxGeometry x="552" y="858" width="120" height="250" as="geometry" />
        </mxCell>
        <mxCell id="AvhizaLENc5mdc6YIrxU-86" value="" style="html=1;points=[];perimeter=orthogonalPerimeter;labelBackgroundColor=none;fontFamily=Helvetica;fontSize=11;" vertex="1" parent="AvhizaLENc5mdc6YIrxU-85">
          <mxGeometry x="55" y="180" width="10" height="30" as="geometry" />
        </mxCell>
        <mxCell id="AvhizaLENc5mdc6YIrxU-87" value="Передача данных" style="html=1;verticalAlign=bottom;endArrow=block;rounded=0;labelBackgroundColor=none;fontFamily=Helvetica;fontSize=11;fontColor=default;shape=connector;curved=0;" edge="1" parent="1" source="AvhizaLENc5mdc6YIrxU-81" target="AvhizaLENc5mdc6YIrxU-84">
          <mxGeometry x="0.0032" width="80" relative="1" as="geometry">
            <mxPoint x="298" y="1028" as="sourcePoint" />
            <mxPoint x="448" y="1028" as="targetPoint" />
            <Array as="points">
              <mxPoint x="373" y="1028" />
            </Array>
            <mxPoint as="offset" />
          </mxGeometry>
        </mxCell>
        <mxCell id="AvhizaLENc5mdc6YIrxU-88" value="Удаление токена" style="html=1;verticalAlign=bottom;endArrow=block;rounded=0;labelBackgroundColor=none;fontFamily=Helvetica;fontSize=11;fontColor=default;shape=connector;curved=0;" edge="1" parent="1" source="AvhizaLENc5mdc6YIrxU-84" target="AvhizaLENc5mdc6YIrxU-86">
          <mxGeometry x="0.0032" width="80" relative="1" as="geometry">
            <mxPoint x="457" y="1047.8" as="sourcePoint" />
            <mxPoint x="607" y="1047.8" as="targetPoint" />
            <Array as="points">
              <mxPoint x="532" y="1038" />
            </Array>
            <mxPoint as="offset" />
          </mxGeometry>
        </mxCell>
        <mxCell id="AvhizaLENc5mdc6YIrxU-89" value="" style="html=1;verticalAlign=bottom;endArrow=open;dashed=1;endSize=8;rounded=0;labelBackgroundColor=none;fontFamily=Helvetica;fontSize=11;fontColor=default;shape=connector;curved=0;" edge="1" parent="1" source="AvhizaLENc5mdc6YIrxU-86" target="AvhizaLENc5mdc6YIrxU-84">
          <mxGeometry x="0.0023" relative="1" as="geometry">
            <mxPoint x="605" y="1057.8" as="sourcePoint" />
            <mxPoint x="457" y="1057.8" as="targetPoint" />
            <Array as="points">
              <mxPoint x="510" y="1057.8" />
              <mxPoint x="490" y="1057.8" />
            </Array>
            <mxPoint as="offset" />
          </mxGeometry>
        </mxCell>
        <mxCell id="AvhizaLENc5mdc6YIrxU-90" value="return" style="edgeLabel;html=1;align=center;verticalAlign=middle;resizable=0;points=[];fontFamily=Helvetica;fontSize=11;labelBackgroundColor=none;" vertex="1" connectable="0" parent="AvhizaLENc5mdc6YIrxU-89">
          <mxGeometry x="-0.0946" relative="1" as="geometry">
            <mxPoint x="-6" y="-10" as="offset" />
          </mxGeometry>
        </mxCell>
        <mxCell id="AvhizaLENc5mdc6YIrxU-91" value="" style="html=1;verticalAlign=bottom;endArrow=open;dashed=1;endSize=8;rounded=0;labelBackgroundColor=none;fontFamily=Helvetica;fontSize=11;fontColor=default;shape=connector;curved=0;" edge="1" parent="1" source="AvhizaLENc5mdc6YIrxU-84" target="AvhizaLENc5mdc6YIrxU-78">
          <mxGeometry x="0.0023" relative="1" as="geometry">
            <mxPoint x="412" y="1068" as="sourcePoint" />
            <mxPoint x="262" y="1068" as="targetPoint" />
            <Array as="points">
              <mxPoint x="292" y="1068" />
            </Array>
            <mxPoint as="offset" />
          </mxGeometry>
        </mxCell>
        <mxCell id="AvhizaLENc5mdc6YIrxU-92" value="Ответ 204" style="edgeLabel;html=1;align=center;verticalAlign=middle;resizable=0;points=[];fontFamily=Helvetica;fontSize=11;labelBackgroundColor=none;" vertex="1" connectable="0" parent="AvhizaLENc5mdc6YIrxU-91">
          <mxGeometry x="-0.0946" relative="1" as="geometry">
            <mxPoint x="-6" y="-10" as="offset" />
          </mxGeometry>
        </mxCell>
        <mxCell id="AvhizaLENc5mdc6YIrxU-93" value="2" style="shape=umlFrame;whiteSpace=wrap;html=1;pointerEvents=0;labelBackgroundColor=none;fillColor=#60a917;fontColor=#ffffff;strokeColor=#2D7600;" vertex="1" parent="1">
          <mxGeometry y="846" width="827" height="293" as="geometry" />
        </mxCell>
        <mxCell id="Fgw-HtleHEGuhaiZ7ENM-1" value="Пользователь" style="shape=umlLifeline;perimeter=lifelinePerimeter;whiteSpace=wrap;html=1;container=1;collapsible=0;recursiveResize=0;outlineConnect=0;labelBackgroundColor=none;fontFamily=Helvetica;fontSize=11;" vertex="1" parent="1">
          <mxGeometry x="72" y="1151" width="120" height="250" as="geometry" />
        </mxCell>
        <mxCell id="Fgw-HtleHEGuhaiZ7ENM-2" value="" style="html=1;points=[];perimeter=orthogonalPerimeter;labelBackgroundColor=none;fontFamily=Helvetica;fontSize=11;" vertex="1" parent="Fgw-HtleHEGuhaiZ7ENM-1">
          <mxGeometry x="55" y="80" width="10" height="140" as="geometry" />
        </mxCell>
        <mxCell id="Fgw-HtleHEGuhaiZ7ENM-3" value="" style="ellipse;html=1;shape=endState;fontFamily=Helvetica;fontSize=11;labelBackgroundColor=none;" vertex="1" parent="Fgw-HtleHEGuhaiZ7ENM-1">
          <mxGeometry x="45" y="230" width="30" height="30" as="geometry" />
        </mxCell>
        <mxCell id="Fgw-HtleHEGuhaiZ7ENM-4" value="Система" style="shape=umlLifeline;perimeter=lifelinePerimeter;whiteSpace=wrap;html=1;container=1;collapsible=0;recursiveResize=0;outlineConnect=0;labelBackgroundColor=none;fontFamily=Helvetica;fontSize=11;" vertex="1" parent="1">
          <mxGeometry x="232" y="1151" width="120" height="250" as="geometry" />
        </mxCell>
        <mxCell id="Fgw-HtleHEGuhaiZ7ENM-5" value="" style="html=1;points=[];perimeter=orthogonalPerimeter;labelBackgroundColor=none;fontFamily=Helvetica;fontSize=11;" vertex="1" parent="Fgw-HtleHEGuhaiZ7ENM-4">
          <mxGeometry x="55" y="90" width="10" height="90" as="geometry" />
        </mxCell>
        <mxCell id="Fgw-HtleHEGuhaiZ7ENM-6" value="Запрос выхода" style="html=1;verticalAlign=bottom;endArrow=block;rounded=0;labelBackgroundColor=none;fontFamily=Helvetica;fontSize=11;fontColor=default;shape=connector;curved=0;" edge="1" parent="1" source="Fgw-HtleHEGuhaiZ7ENM-2" target="Fgw-HtleHEGuhaiZ7ENM-5">
          <mxGeometry x="0.0032" width="80" relative="1" as="geometry">
            <mxPoint x="132" y="1251" as="sourcePoint" />
            <mxPoint x="212" y="1251" as="targetPoint" />
            <Array as="points">
              <mxPoint x="212" y="1241" />
            </Array>
            <mxPoint as="offset" />
          </mxGeometry>
        </mxCell>
        <mxCell id="Fgw-HtleHEGuhaiZ7ENM-7" value="Компонент аунтификации" style="shape=umlLifeline;perimeter=lifelinePerimeter;whiteSpace=wrap;html=1;container=1;collapsible=0;recursiveResize=0;outlineConnect=0;labelBackgroundColor=none;fontFamily=Helvetica;fontSize=11;" vertex="1" parent="1">
          <mxGeometry x="392" y="1151" width="120" height="250" as="geometry" />
        </mxCell>
        <mxCell id="Fgw-HtleHEGuhaiZ7ENM-8" value="" style="html=1;points=[];perimeter=orthogonalPerimeter;labelBackgroundColor=none;fontFamily=Helvetica;fontSize=11;" vertex="1" parent="Fgw-HtleHEGuhaiZ7ENM-7">
          <mxGeometry x="55" y="170" width="10" height="50" as="geometry" />
        </mxCell>
        <mxCell id="Fgw-HtleHEGuhaiZ7ENM-9" value="База данных" style="shape=umlLifeline;perimeter=lifelinePerimeter;whiteSpace=wrap;html=1;container=1;collapsible=0;recursiveResize=0;outlineConnect=0;labelBackgroundColor=none;fontFamily=Helvetica;fontSize=11;" vertex="1" parent="1">
          <mxGeometry x="552" y="1151" width="120" height="250" as="geometry" />
        </mxCell>
        <mxCell id="Fgw-HtleHEGuhaiZ7ENM-10" value="" style="html=1;points=[];perimeter=orthogonalPerimeter;labelBackgroundColor=none;fontFamily=Helvetica;fontSize=11;" vertex="1" parent="Fgw-HtleHEGuhaiZ7ENM-9">
          <mxGeometry x="55" y="180" width="10" height="30" as="geometry" />
        </mxCell>
        <mxCell id="Fgw-HtleHEGuhaiZ7ENM-11" value="Передача данных" style="html=1;verticalAlign=bottom;endArrow=block;rounded=0;labelBackgroundColor=none;fontFamily=Helvetica;fontSize=11;fontColor=default;shape=connector;curved=0;" edge="1" parent="1" source="Fgw-HtleHEGuhaiZ7ENM-5" target="Fgw-HtleHEGuhaiZ7ENM-8">
          <mxGeometry x="0.0032" width="80" relative="1" as="geometry">
            <mxPoint x="298" y="1321" as="sourcePoint" />
            <mxPoint x="448" y="1321" as="targetPoint" />
            <Array as="points">
              <mxPoint x="373" y="1321" />
            </Array>
            <mxPoint as="offset" />
          </mxGeometry>
        </mxCell>
        <mxCell id="Fgw-HtleHEGuhaiZ7ENM-12" value="Удаление токена" style="html=1;verticalAlign=bottom;endArrow=block;rounded=0;labelBackgroundColor=none;fontFamily=Helvetica;fontSize=11;fontColor=default;shape=connector;curved=0;" edge="1" parent="1" source="Fgw-HtleHEGuhaiZ7ENM-8" target="Fgw-HtleHEGuhaiZ7ENM-10">
          <mxGeometry x="0.0032" width="80" relative="1" as="geometry">
            <mxPoint x="457" y="1340.8" as="sourcePoint" />
            <mxPoint x="607" y="1340.8" as="targetPoint" />
            <Array as="points">
              <mxPoint x="532" y="1331" />
            </Array>
            <mxPoint as="offset" />
          </mxGeometry>
        </mxCell>
        <mxCell id="Fgw-HtleHEGuhaiZ7ENM-13" value="" style="html=1;verticalAlign=bottom;endArrow=open;dashed=1;endSize=8;rounded=0;labelBackgroundColor=none;fontFamily=Helvetica;fontSize=11;fontColor=default;shape=connector;curved=0;" edge="1" parent="1" source="Fgw-HtleHEGuhaiZ7ENM-10" target="Fgw-HtleHEGuhaiZ7ENM-8">
          <mxGeometry x="0.0023" relative="1" as="geometry">
            <mxPoint x="605" y="1350.8" as="sourcePoint" />
            <mxPoint x="457" y="1350.8" as="targetPoint" />
            <Array as="points">
              <mxPoint x="510" y="1350.8" />
              <mxPoint x="490" y="1350.8" />
            </Array>
            <mxPoint as="offset" />
          </mxGeometry>
        </mxCell>
        <mxCell id="Fgw-HtleHEGuhaiZ7ENM-14" value="return" style="edgeLabel;html=1;align=center;verticalAlign=middle;resizable=0;points=[];fontFamily=Helvetica;fontSize=11;labelBackgroundColor=none;" vertex="1" connectable="0" parent="Fgw-HtleHEGuhaiZ7ENM-13">
          <mxGeometry x="-0.0946" relative="1" as="geometry">
            <mxPoint x="-6" y="-10" as="offset" />
          </mxGeometry>
        </mxCell>
        <mxCell id="Fgw-HtleHEGuhaiZ7ENM-15" value="" style="html=1;verticalAlign=bottom;endArrow=open;dashed=1;endSize=8;rounded=0;labelBackgroundColor=none;fontFamily=Helvetica;fontSize=11;fontColor=default;shape=connector;curved=0;" edge="1" parent="1" source="Fgw-HtleHEGuhaiZ7ENM-8" target="Fgw-HtleHEGuhaiZ7ENM-2">
          <mxGeometry x="0.0023" relative="1" as="geometry">
            <mxPoint x="412" y="1361" as="sourcePoint" />
            <mxPoint x="262" y="1361" as="targetPoint" />
            <Array as="points">
              <mxPoint x="292" y="1361" />
            </Array>
            <mxPoint as="offset" />
          </mxGeometry>
        </mxCell>
        <mxCell id="Fgw-HtleHEGuhaiZ7ENM-16" value="Ответ 204" style="edgeLabel;html=1;align=center;verticalAlign=middle;resizable=0;points=[];fontFamily=Helvetica;fontSize=11;labelBackgroundColor=none;" vertex="1" connectable="0" parent="Fgw-HtleHEGuhaiZ7ENM-15">
          <mxGeometry x="-0.0946" relative="1" as="geometry">
            <mxPoint x="-6" y="-10" as="offset" />
          </mxGeometry>
        </mxCell>
        <mxCell id="Fgw-HtleHEGuhaiZ7ENM-17" value="3" style="shape=umlFrame;whiteSpace=wrap;html=1;pointerEvents=0;labelBackgroundColor=none;fillColor=#60a917;fontColor=#ffffff;strokeColor=#2D7600;" vertex="1" parent="1">
          <mxGeometry y="1139" width="827" height="293" as="geometry" />
        </mxCell>
      </root>
    </mxGraphModel>
  </diagram>
  <diagram id="5NWwpcaCfv4OqXo1m9ni" name="Диаграмма прецендентов">
    <mxGraphModel dx="1434" dy="836" grid="1" gridSize="10" guides="1" tooltips="1" connect="1" arrows="1" fold="1" page="1" pageScale="1" pageWidth="827" pageHeight="1169" math="0" shadow="0">
      <root>
        <mxCell id="0" />
        <mxCell id="1" parent="0" />
      </root>
    </mxGraphModel>
  </diagram>
</mxfile>
